<svg xmlns="http://www.w3.org/2000/svg" style="display: none;"><symbol id="game-controller" viewBox="0 0 511.999 511.999"><title>game-controller</title><path style="fill:#E4EAF6;" d="M406.068,150.068H109.444c-58.325,0-108.359,45.63-109.426,103.946 C-1.07,313.426,46.766,361.93,105.93,361.93c28.724,0,54.702-11.499,73.772-30.073c3.322-3.235,7.648-5.237,12.286-5.237h128.044 c4.626,0,8.937,1.995,12.249,5.224c21.57,21.017,51.988,32.982,85.218,29.484c48.802-5.138,88.484-44.561,93.839-93.34 C518.352,204.114,468.522,150.068,406.068,150.068z"/><circle style="fill:#707487;" cx="406.068" cy="255.999" r="88.276"/><circle style="fill:#D7DEED;" cx="105.93" cy="255.999" r="57.379"/><path style="fill:#707487;" d="M140.689,241.103h-14.897c-2.742,0-4.966-2.223-4.966-4.966v-14.897c0-2.742-2.223-4.966-4.966-4.966 H95.999c-2.742,0-4.966,2.223-4.966,4.966v14.897c0,2.742-2.223,4.966-4.966,4.966H71.172c-2.742,0-4.966,2.223-4.966,4.966v19.862 c0,2.742,2.223,4.966,4.966,4.966h14.897c2.742,0,4.966,2.223,4.966,4.966v14.897c0,2.742,2.223,4.966,4.966,4.966h19.862 c2.742,0,4.966-2.223,4.966-4.966v-14.897c0-2.742,2.223-4.966,4.966-4.966h14.897c2.742,0,4.966-2.223,4.966-4.966v-19.862 C145.655,243.326,143.431,241.103,140.689,241.103z"/><circle style="fill:#5B5D6E;" cx="105.93" cy="255.999" r="8.828"/><g> <path style="fill:#707487;" d="M211.867,291.31c-3.242,0-6.354-1.784-7.905-4.879c-2.182-4.362-0.414-9.664,3.948-11.844 l17.655-8.828c4.362-2.177,9.664-0.414,11.844,3.948c2.18,4.362,0.414,9.664-3.948,11.844l-17.655,8.828 C214.54,291.012,213.194,291.31,211.867,291.31z"/> <path style="fill:#707487;" d="M264.833,291.31c-3.242,0-6.354-1.784-7.905-4.879c-2.182-4.362-0.414-9.664,3.948-11.844 l17.655-8.828c4.353-2.177,9.655-0.414,11.844,3.948c2.182,4.362,0.414,9.664-3.948,11.844l-17.655,8.828 C267.505,291.012,266.16,291.31,264.833,291.31z"/> </g><g> <path style="fill:#D7DEED;" d="M286.896,203.034h-79.448c-7.313,0-13.241-5.929-13.241-13.241l0,0 c0-7.313,5.929-13.241,13.241-13.241h79.448c7.313,0,13.241,5.929,13.241,13.241l0,0 C300.137,197.105,294.209,203.034,286.896,203.034z"/> <path style="fill:#D7DEED;" d="M357.526,275.861c-5.181,0-10.311-2.268-13.793-6.625c-6.094-7.616-4.862-18.724,2.759-24.814 l44.138-35.31c7.604-6.099,18.724-4.862,24.81,2.754c6.094,7.616,4.862,18.724-2.759,24.814l-44.138,35.31 C365.293,274.598,361.396,275.861,357.526,275.861z"/> <path style="fill:#D7DEED;" d="M410.491,306.758c-5.181,0-10.311-2.268-13.793-6.625c-6.094-7.616-4.862-18.724,2.759-24.814 l44.138-35.31c7.595-6.103,18.733-4.853,24.81,2.754c6.094,7.616,4.862,18.724-2.759,24.814l-44.138,35.31 C418.258,305.494,414.362,306.758,410.491,306.758z"/> </g><circle style="fill:#00DCC8;" cx="357.517" cy="258.206" r="17.655"/><circle style="fill:#82B9FF;" cx="401.655" cy="222.896" r="17.655"/><circle style="fill:#FF6464;" cx="454.62" cy="253.792" r="17.655"/><circle style="fill:#FFCD46;" cx="410.482" cy="289.103" r="17.655"/></symbol><symbol id="defense" viewBox="0 0 512 512"><title>defense</title><path style="fill:#FFD782;" d="M472.68,102.247c-0.189-7.545-6.078-13.572-13.558-14.584c-0.03-0.004-0.06-0.008-0.088-0.012 c-29.945-4.285-52.964-30.038-52.964-61.167v-0.143c0.01-8.15-5.858-15.087-13.912-16.331C357.287,4.625,311.323,0,256.001,0 S154.714,4.625,119.844,10.008c-8.054,1.244-13.923,8.181-13.912,16.331v0.143c0,31.129-23.019,56.883-52.966,61.167 c-0.029,0.004-0.058,0.008-0.088,0.012c-7.48,1.012-13.368,7.038-13.558,14.584C30.044,473.012,256.001,512,256.001,512 S481.957,473.012,472.68,102.247z"/><path style="fill:#C7CFE2;" d="M256.001,17.655c46.048,0,90.592,3.243,132.418,9.641c0.394,38.37,28.716,71.349,66.665,77.604 c3.242,144.414-30.692,257.514-98.191,327.182c-43.81,45.218-89.063,58.894-100.914,61.843 c-25.763-6.365-206.388-62.873-199.06-389.02c37.79-6.129,66.188-39.079,66.664-77.609 C165.407,20.898,209.953,17.655,256.001,17.655"/><path style="fill:#AEB5CA;" d="M256.001,35.31c40.181,0,79.172,2.514,116.125,7.481c5.999,35.471,31.238,64.759,65.501,75.967 c0.818,133.1-31.373,237.004-93.415,301.038c-36.459,37.63-74.253,51.652-88.246,55.823c-15.363-4.569-58.521-20.839-98.489-67.738 c-56.017-65.731-83.951-162.937-83.105-289.091c34.212-11.147,59.449-40.441,65.485-75.997 C176.815,37.826,215.816,35.31,256.001,35.31 M256.001,17.655c-46.048,0-90.593,3.243-132.419,9.641 c-0.474,38.53-28.874,71.48-66.664,77.609c-7.327,326.146,173.298,382.656,199.06,389.02c11.851-2.948,57.103-16.626,100.914-61.843 c67.499-69.668,101.434-182.769,98.191-327.182c-37.949-6.255-66.271-39.234-66.665-77.604 C346.593,20.898,302.048,17.655,256.001,17.655L256.001,17.655z"/><path style="fill:#FFD782;" d="M256.001,88.276c26.163,0,51.807,1.131,76.597,3.372c11.558,24.072,29.351,44.595,51.563,59.462 c-3.962,103.273-30.691,183.015-77.988,231.832c-18.477,19.07-37.142,30.05-50.165,36.062c-14.78-6.9-36.832-20.381-58.219-45.475 c-42.912-50.354-66.403-125.055-69.987-222.348c22.215-14.863,40.022-35.416,51.586-59.53 C204.186,89.407,229.836,88.276,256.001,88.276"/><path style="fill:#FFC36E;" d="M198.759,90.354c-6.461,0.428-13.015,0.721-19.371,1.295c-11.564,24.115-29.372,44.666-51.586,59.53 c3.585,97.293,27.076,171.994,69.987,222.348c21.386,25.095,43.439,38.575,58.219,45.475 C230.469,389.512,163.95,265.354,198.759,90.354z"/><path style="fill:#AEB5CA;" d="M256.001,88.276c26.163,0,51.807,1.131,76.597,3.372c11.558,24.072,29.351,44.595,51.563,59.462 c-3.962,103.273-30.691,183.015-77.988,231.832c-18.477,19.07-37.142,30.05-50.165,36.062c-14.78-6.9-36.832-20.381-58.219-45.475 c-42.912-50.354-66.403-125.055-69.987-222.348c22.215-14.863,40.022-35.416,51.586-59.53 C204.186,89.407,229.836,88.276,256.001,88.276 M256.001,70.621c-26.607,0-52.919,1.16-78.202,3.446l-9.992,0.904l-4.338,9.046 c-10.19,21.248-25.919,39.399-45.485,52.491l-8.188,5.479l0.363,9.845c3.733,101.318,28.695,179.761,74.194,233.15 c23.459,27.528,47.854,42.396,64.188,50.022l7.426,3.467l7.442-3.434c13.928-6.429,34.852-18.552,55.446-39.806 c50.142-51.754,78.826-135.935,82.951-243.442l0.378-9.86l-8.201-5.489c-19.564-13.096-35.287-31.225-45.469-52.434l-4.34-9.039 l-9.986-0.903C308.909,71.779,282.604,70.621,256.001,70.621L256.001,70.621z"/><g> <circle style="fill:#FFD782;" cx="256.001" cy="52.966" r="8.828"/> <circle style="fill:#FFD782;" cx="93.783" cy="132.414" r="8.828"/> <circle style="fill:#FFD782;" cx="418.218" cy="132.414" r="8.828"/> <circle style="fill:#FFD782;" cx="121.17" cy="308.966" r="8.828"/> <circle style="fill:#FFD782;" cx="390.831" cy="308.966" r="8.828"/> <circle style="fill:#FFD782;" cx="256.001" cy="455.724" r="8.828"/> </g><circle style="fill:#FFE3A8;" cx="312.232" cy="197.473" r="32.044"/><circle style="fill:#FFF3D9;" cx="271.14" cy="136.364" r="20.028"/></symbol><symbol id="horseshoe" viewBox="0 0 512 512"><title>horseshoe</title><path style="fill:#FF6464;" d="M255.999,388.403c-3.094,0-6.208-0.081-9.362-0.377c-50.319-4.737-87.755-48.979-87.755-99.519V8.829 c0-4.876-3.953-8.829-8.829-8.829H44.109c-4.876,0-8.829,3.953-8.829,8.829v277.504c0,122.21,98.992,225.577,220.72,225.667V388.403 z"/><path style="fill:#D7DEED;" d="M150.054,0H44.109c-4.876,0-8.829,3.953-8.829,8.829v44.144h123.603V8.829 C158.883,3.953,154.93,0,150.054,0z"/><rect x="35.28" y="52.973" style="fill:#C7CFE2;" width="123.603" height="17.658"/><path style="fill:#28AFF0;" d="M255.999,388.403c3.094,0,6.208-0.081,9.362-0.377c50.319-4.737,87.755-48.979,87.755-99.519V8.829 c0-4.876,3.953-8.829,8.829-8.829H467.89c4.876,0,8.829,3.953,8.829,8.829v277.504c0,122.21-98.992,225.577-220.72,225.667V388.403z "/><path style="fill:#D7DEED;" d="M361.945,0H467.89c4.876,0,8.829,3.953,8.829,8.829v44.144H353.116V8.829 C353.116,3.953,357.068,0,361.945,0z"/><rect x="353.117" y="52.973" style="fill:#C7CFE2;" width="123.603" height="17.658"/></symbol><symbol id="game-control" viewBox="0 0 512 512"><title>game-control</title><path style="fill:#E4EAF6;" d="M353.103,512H123.586c-9.751,0-17.655-7.904-17.655-17.655V17.655C105.931,7.904,113.835,0,123.586,0 h264.828c9.751,0,17.655,7.904,17.655,17.655v441.379C406.069,488.287,382.356,512,353.103,512z"/><path style="fill:#707487;" d="M353.103,238.345h-220.69c-4.875,0-8.828-3.953-8.828-8.828V44.138c0-4.875,3.953-8.828,8.828-8.828 h247.172c4.875,0,8.828,3.953,8.828,8.828v158.897C388.414,222.536,372.605,238.345,353.103,238.345z"/><path style="fill:#464655;" d="M189.793,313.379h-17.655v-17.655c0-2.438-1.976-4.414-4.414-4.414h-17.655 c-2.438,0-4.414,1.976-4.414,4.414v17.655H128c-2.438,0-4.414,1.976-4.414,4.414v17.655c0,2.438,1.976,4.414,4.414,4.414h17.655 v17.655c0,2.438,1.976,4.414,4.414,4.414h17.655c2.438,0,4.414-1.976,4.414-4.414v-17.655h17.655c2.438,0,4.414-1.976,4.414-4.414 v-17.655C194.207,315.356,192.231,313.379,189.793,313.379z"/><path style="fill:#D7DEED;" d="M317.802,361.94c-10.508,0-20.457-6.302-24.595-16.655c-5.431-13.582,1.173-28.991,14.75-34.426 l44.138-17.655c13.578-5.418,29,1.176,34.422,14.754c5.431,13.582-1.173,28.991-14.75,34.426l-44.138,17.655 C324.405,361.327,321.078,361.94,317.802,361.94z"/><g> <path style="fill:#707487;" d="M211.862,416.408c-3.5,0-6.819-2.099-8.199-5.551c-1.811-4.526,0.388-9.664,4.922-11.474 l25.818-10.332c4.483-1.815,9.664,0.38,11.474,4.914c1.811,4.526-0.396,9.664-4.922,11.474l-25.818,10.332 C214.069,416.202,212.957,416.408,211.862,416.408z"/> <path style="fill:#707487;" d="M265.483,417.917c-3.5,0-6.819-2.103-8.199-5.556c-1.811-4.526,0.396-9.664,4.922-11.474 l25.827-10.327c4.491-1.784,9.664,0.388,11.474,4.922c1.811,4.526-0.396,9.664-4.922,11.474l-25.827,10.327 C267.69,417.71,266.578,417.917,265.483,417.917z"/> </g><g> <circle style="fill:#FF6464;" cx="317.793" cy="335.448" r="17.655"/> <circle style="fill:#FF6464;" cx="361.931" cy="317.793" r="17.655"/> </g><g> <path style="fill:#D7DEED;" d="M382.163,472.29c-1.75,0-3.405-1.047-4.095-2.776L362.601,430.6 c-0.905-2.263,0.19-4.832,2.457-5.737c2.259-0.918,4.828,0.194,5.732,2.461l15.467,38.914c0.905,2.263-0.19,4.832-2.457,5.737 C383.266,472.191,382.706,472.29,382.163,472.29z"/> <path style="fill:#D7DEED;" d="M366.947,478.76c-1.75,0-3.405-1.047-4.095-2.776l-15.467-38.914 c-0.905-2.263,0.19-4.832,2.457-5.737c2.241-0.909,4.828,0.194,5.732,2.461l15.467,38.914c0.905,2.263-0.19,4.832-2.457,5.737 C368.051,478.66,367.49,478.76,366.947,478.76z"/> <path style="fill:#D7DEED;" d="M351.731,485.23c-1.75,0-3.405-1.047-4.095-2.776l-15.467-38.914 c-0.905-2.263,0.19-4.832,2.457-5.737c2.241-0.918,4.828,0.199,5.732,2.461l15.467,38.914c0.905,2.263-0.19,4.832-2.457,5.737 C352.834,485.131,352.275,485.23,351.731,485.23z"/> <path style="fill:#D7DEED;" d="M336.515,491.704c-1.75,0-3.405-1.047-4.095-2.776l-15.467-38.914 c-0.905-2.263,0.19-4.832,2.457-5.737c2.241-0.914,4.828,0.199,5.732,2.461l15.467,38.914c0.905,2.263-0.19,4.832-2.457,5.737 C337.619,491.605,337.059,491.704,336.515,491.704z"/> <path style="fill:#D7DEED;" d="M321.3,498.174c-1.75,0-3.405-1.047-4.095-2.776l-15.467-38.914 c-0.905-2.263,0.19-4.832,2.457-5.737c2.25-0.922,4.828,0.194,5.732,2.461l15.467,38.914c0.905,2.263-0.19,4.832-2.457,5.737 C322.403,498.074,321.844,498.174,321.3,498.174z"/> </g><path style="fill:#BEDCAF;" d="M335.448,220.69H176.552c-4.875,0-8.828-3.953-8.828-8.828V61.793c0-4.875,3.953-8.828,8.828-8.828 h158.897c4.875,0,8.828,3.953,8.828,8.828v150.069C344.276,216.737,340.323,220.69,335.448,220.69z"/><path style="fill:#D7DEED;" d="M269.241,498.759h-26.483c-4.875,0-8.828-3.953-8.828-8.828l0,0c0-4.875,3.953-8.828,8.828-8.828 h26.483c4.875,0,8.828,3.953,8.828,8.828l0,0C278.069,494.806,274.116,498.759,269.241,498.759z"/><circle style="fill:#5B5D6E;" cx="158.897" cy="326.621" r="8.828"/></symbol><symbol id="droid" viewBox="0 0 512 512"><title>droid</title><rect x="97.103" y="123.586" style="fill:#959CB3;" width="17.655" height="97.103"/><g> <circle style="fill:#707487;" cx="105.931" cy="229.517" r="17.655"/> <rect x="203.034" y="273.655" style="fill:#707487;" width="105.931" height="17.655"/> </g><path style="fill:#959CB3;" d="M220.69,220.69v17.655l0,0c9.751,0,17.655,7.904,17.655,17.655v35.31 c0,4.875,3.953,8.828,8.828,8.828h17.655c4.875,0,8.828-3.953,8.828-8.828V256c0-9.751,7.904-17.655,17.655-17.655l0,0V220.69 H220.69z"/><path style="fill:#AFB9D2;" d="M293.379,238.345h-74.76c-8.904,0-16.415-6.631-17.518-15.465l-6.894-55.156h123.586l-6.894,55.156 C309.794,231.714,302.284,238.345,293.379,238.345z"/><path style="fill:#959CB3;" d="M167.724,150.069v15.571c0,6.687,3.778,12.801,9.76,15.791l39.038,19.519 c24.852,12.426,54.104,12.426,78.956,0l39.038-19.519c5.982-2.99,9.76-9.103,9.76-15.791v-15.571H167.724z"/><path style="fill:#AFB9D2;" d="M256.032,0h-0.065c-24.93,0-45.698,19.11-47.768,43.954l-5.164,61.977h105.931L303.8,43.954 C301.73,19.11,280.962,0,256.032,0z"/><polygon style="fill:#959CB3;" points="203.034,105.931 308.966,105.931 306.023,70.621 205.977,70.621 "/><path style="fill:#C7CFE2;" d="M344.276,70.621h-8.828c-4.875,0-8.828,3.953-8.828,8.828l0,0c0,4.875-3.953,8.828-8.828,8.828 H194.207c-4.875,0-8.828-3.953-8.828-8.828l0,0c0-4.875-3.953-8.828-8.828-8.828h-8.828c-9.751,0-17.655,7.904-17.655,17.655v49.068 c0,7.599,4.863,14.346,12.072,16.749l60.361,20.12c21.745,7.249,45.252,7.249,66.997,0l60.361-20.12 c7.209-2.403,12.072-9.15,12.072-16.749V88.276C361.931,78.525,354.027,70.621,344.276,70.621z"/><circle style="fill:#FF6464;" cx="256" cy="133.594" r="27.663"/><path style="fill:#AFB9D2;" d="M163.31,167.724L163.31,167.724c-7.313,0-13.241-5.929-13.241-13.241v-35.31 c0-7.313,5.929-13.241,13.241-13.241l0,0c7.313,0,13.241,5.929,13.241,13.241v35.31C176.552,161.795,170.623,167.724,163.31,167.724 z"/><circle style="fill:#959CB3;" cx="163.31" cy="119.172" r="13.241"/><path style="fill:#AFB9D2;" d="M348.69,167.724L348.69,167.724c-7.313,0-13.241-5.929-13.241-13.241v-35.31 c0-7.313,5.929-13.241,13.241-13.241l0,0c7.313,0,13.241,5.929,13.241,13.241v35.31C361.931,161.795,356.002,167.724,348.69,167.724 z"/><circle style="fill:#959CB3;" cx="348.69" cy="119.172" r="13.241"/><path style="fill:#FF6464;" d="M273.655,52.966h-35.31c-4.875,0-8.828-3.953-8.828-8.828l0,0c0-4.875,3.953-8.828,8.828-8.828h35.31 c4.875,0,8.828,3.953,8.828,8.828l0,0C282.483,49.013,278.53,52.966,273.655,52.966z"/><rect x="132.414" y="88.276" style="fill:#707487;" width="17.655" height="35.31"/><path style="fill:#AFB9D2;" d="M97.103,123.586H79.448c-4.875,0-8.828-3.953-8.828-8.828V97.103c0-4.875,3.953-8.828,8.828-8.828 h17.655c4.875,0,8.828,3.953,8.828,8.828v17.655C105.931,119.634,101.978,123.586,97.103,123.586z"/><path style="fill:#C7CFE2;" d="M105.931,132.414h17.655c4.875,0,8.828-3.953,8.828-8.828v-35.31c0-4.875-3.953-8.828-8.828-8.828 h-17.655c-9.751,0-17.655,7.904-17.655,17.655v17.655C88.276,124.51,96.18,132.414,105.931,132.414z"/><rect x="176.552" y="300.138" style="fill:#959CB3;" width="17.655" height="105.931"/><path style="fill:#AFB9D2;" d="M167.724,300.138h-17.655c-4.875,0-8.828-3.953-8.828-8.828v-17.655c0-4.875,3.953-8.828,8.828-8.828 h17.655V300.138z"/><path style="fill:#C7CFE2;" d="M176.552,308.966h35.31c4.875,0,8.828-3.953,8.828-8.828v-35.31c0-4.875-3.953-8.828-8.828-8.828 h-35.31c-9.751,0-17.655,7.904-17.655,17.655v17.655C158.897,301.062,166.801,308.966,176.552,308.966z"/><g> <circle style="fill:#AFB9D2;" cx="185.379" cy="353.103" r="17.655"/> <path style="fill:#AFB9D2;" d="M194.207,406.069h-21.825c-7.961,0-14.938,5.329-17.033,13.01l-22.935,84.094h70.621v-88.276 C203.034,410.022,199.082,406.069,194.207,406.069z"/> </g><polygon style="fill:#A2AAC2;" points="134.822,494.345 194.207,494.345 194.207,476.69 139.636,476.69 "/><g> <path style="fill:#959CB3;" d="M203.034,450.207l-7.895,3.948c-5.982,2.99-9.76,9.103-9.76,15.791v33.226h17.655V450.207z"/> <path style="fill:#959CB3;" d="M203.034,512h-79.448c-4.879,0-8.828-3.948-8.828-8.828c0-4.879,3.948-8.828,8.828-8.828h79.448 c4.871,0,8.828-3.957,8.828-8.828c0-4.879,3.948-8.828,8.828-8.828s8.828,3.948,8.828,8.828 C229.517,500.12,217.638,512,203.034,512z"/> </g><rect x="88.276" y="238.345" style="fill:#AFB9D2;" width="35.31" height="52.966"/><g> <path style="fill:#707487;" d="M132.414,361.931c-4.879,0-8.828-3.948-8.828-8.828v-15.569l-7.896-15.794 c-2.182-4.362-0.414-9.664,3.948-11.844c4.362-2.155,9.664-0.414,11.844,3.948l8.828,17.655c0.612,1.224,0.931,2.578,0.931,3.948 v17.655C141.241,357.983,137.293,361.931,132.414,361.931z"/> <path style="fill:#707487;" d="M79.448,361.931c-4.879,0-8.828-3.948-8.828-8.828v-17.655c0-1.37,0.319-2.724,0.931-3.948 l8.828-17.655c2.182-4.362,7.482-6.103,11.844-3.948c4.362,2.182,6.13,7.482,3.948,11.844l-7.896,15.794v15.569 C88.276,357.983,84.328,361.931,79.448,361.931z"/> </g><g> <path style="fill:#959CB3;" d="M105.931,282.483c-14.603,0-26.483,11.88-26.483,26.483v8.828c0,4.879,3.948,8.828,8.828,8.828 h35.31c4.879,0,8.828-3.948,8.828-8.828v-8.828C132.414,294.362,120.534,282.483,105.931,282.483z"/> <path style="fill:#959CB3;" d="M123.586,247.172h-35.31c-4.875,0-8.828-3.953-8.828-8.828l0,0c0-4.875,3.953-8.828,8.828-8.828 h35.31c4.875,0,8.828,3.953,8.828,8.828l0,0C132.414,243.22,128.461,247.172,123.586,247.172z"/> <rect x="397.241" y="123.586" style="fill:#959CB3;" width="17.655" height="97.103"/> </g><g> <circle style="fill:#707487;" cx="406.069" cy="229.517" r="17.655"/> <rect x="361.931" y="88.276" style="fill:#707487;" width="17.655" height="35.31"/> </g><path style="fill:#AFB9D2;" d="M414.897,123.586h17.655c4.875,0,8.828-3.953,8.828-8.828V97.103c0-4.875-3.953-8.828-8.828-8.828 h-17.655c-4.875,0-8.828,3.953-8.828,8.828v17.655C406.069,119.634,410.022,123.586,414.897,123.586z"/><path style="fill:#C7CFE2;" d="M406.069,132.414h-17.655c-4.875,0-8.828-3.953-8.828-8.828v-35.31c0-4.875,3.953-8.828,8.828-8.828 h17.655c9.751,0,17.655,7.904,17.655,17.655v17.655C423.724,124.51,415.82,132.414,406.069,132.414z"/><rect x="317.793" y="300.138" style="fill:#959CB3;" width="17.655" height="105.931"/><path style="fill:#AFB9D2;" d="M344.276,300.138h17.655c4.875,0,8.828-3.953,8.828-8.828v-17.655c0-4.875-3.953-8.828-8.828-8.828 h-17.655V300.138z"/><path style="fill:#C7CFE2;" d="M335.448,308.966h-35.31c-4.875,0-8.828-3.953-8.828-8.828v-35.31c0-4.875,3.953-8.828,8.828-8.828 h35.31c9.751,0,17.655,7.904,17.655,17.655v17.655C353.103,301.062,345.199,308.966,335.448,308.966z"/><g> <circle style="fill:#AFB9D2;" cx="326.621" cy="353.103" r="17.655"/> <path style="fill:#AFB9D2;" d="M317.793,406.069h21.825c7.961,0,14.938,5.329,17.033,13.01l22.935,84.094h-70.621v-88.276 C308.966,410.022,312.918,406.069,317.793,406.069z"/> </g><polygon style="fill:#A2AAC2;" points="377.178,494.345 317.793,494.345 317.793,476.69 372.364,476.69 "/><g> <path style="fill:#959CB3;" d="M308.966,450.207l7.895,3.948c5.982,2.99,9.76,9.103,9.76,15.791v33.226h-17.655V450.207z"/> <path style="fill:#959CB3;" d="M388.414,512h-79.448c-14.603,0-26.483-11.88-26.483-26.483c0-4.879,3.948-8.828,8.828-8.828 c4.879,0,8.828,3.948,8.828,8.828c0,4.871,3.957,8.828,8.828,8.828h79.448c4.879,0,8.828,3.948,8.828,8.828 C397.241,508.052,393.293,512,388.414,512z"/> </g><rect x="388.414" y="238.345" style="fill:#AFB9D2;" width="35.31" height="52.966"/><g> <path style="fill:#707487;" d="M379.586,361.931c4.879,0,8.828-3.948,8.828-8.828v-15.569l7.896-15.794 c2.181-4.362,0.414-9.664-3.948-11.844c-4.362-2.155-9.664-0.414-11.844,3.948L371.69,331.5c-0.612,1.224-0.931,2.578-0.931,3.948 v17.655C370.759,357.983,374.707,361.931,379.586,361.931z"/> <path style="fill:#707487;" d="M432.552,361.931c4.879,0,8.828-3.948,8.828-8.828v-17.655c0-1.37-0.319-2.724-0.931-3.948 l-8.828-17.655c-2.182-4.362-7.482-6.103-11.844-3.948c-4.362,2.182-6.13,7.482-3.948,11.844l7.896,15.794v15.569 C423.724,357.983,427.672,361.931,432.552,361.931z"/> </g><g> <path style="fill:#959CB3;" d="M406.069,282.483c14.603,0,26.483,11.88,26.483,26.483v8.828c0,4.879-3.948,8.828-8.828,8.828 h-35.31c-4.879,0-8.828-3.948-8.828-8.828v-8.828C379.586,294.362,391.466,282.483,406.069,282.483z"/> <path style="fill:#959CB3;" d="M388.414,247.172h35.31c4.875,0,8.828-3.953,8.828-8.828l0,0c0-4.875-3.953-8.828-8.828-8.828 h-35.31c-4.875,0-8.828,3.953-8.828,8.828l0,0C379.586,243.22,383.539,247.172,388.414,247.172z"/> </g><path style="fill:#FF8B8B;" d="M256,105.931c-3.106,0-6.04,0.628-8.828,1.571v24.911c0,4.875,3.953,8.828,8.828,8.828 s8.828-3.953,8.828-8.828v-24.911C262.04,106.559,259.106,105.931,256,105.931z"/></symbol><symbol id="technological" viewBox="0 0 512 512"><title>technological</title><g> <path style="fill:#464655;" d="M211.862,26.483l37.581,15.032c4.21,1.684,8.905,1.684,13.114,0l37.58-15.032v291.31h-88.276V26.483 z"/> <path style="fill:#464655;" d="M150.069,44.138l-19.018,6.339c-4.642,1.547-8.043,5.523-8.873,10.345 c-3.338,19.375-11.785,72.947-16.247,142.212c-1.359,21.099-35.31,50.919-35.31,70.621c0,61.793,52.966,158.897,52.966,158.897 L150.069,44.138z"/> <path style="fill:#464655;" d="M361.931,44.138l19.018,6.339c4.642,1.547,8.043,5.523,8.873,10.345 c3.337,19.375,11.785,72.947,16.247,142.212c1.359,21.099,35.31,50.919,35.31,70.621c0,61.793-52.966,158.897-52.966,158.897 L361.931,44.138z"/> </g><path style="fill:#5B5D6E;" d="M372.313,40.028c-0.953-5.625-4.573-10.357-9.717-12.825c-11.266-5.406-33.198-15.655-59.463-26.522 c-5.7-2.359-12.034,1.7-12.233,7.866l-8.196,258.234c-0.143,4.503-1.436,8.896-3.753,12.759l-15.382,25.635 c-1.715,2.857-4.642,4.286-7.57,4.286c-2.927,0-5.855-1.428-7.57-4.286l-15.382-25.635c-2.318-3.863-3.609-8.256-3.753-12.759 L221.098,8.546c-0.199-6.166-6.532-10.226-12.233-7.866c-26.264,10.869-48.196,21.117-59.463,26.522 c-5.144,2.468-8.762,7.199-9.716,12.825c-22.219,131.023-24.633,340.736-24.896,386.198c-0.031,5.404,2.333,10.56,6.595,13.884 c41.743,32.547,100.538,59.519,124.175,69.726C248.905,511.279,252.452,512,256,512c3.548,0,7.096-0.722,10.439-2.165 c23.637-10.207,82.432-37.178,124.175-69.726c4.263-3.322,6.627-8.479,6.595-13.884C396.947,380.763,394.533,171.051,372.313,40.028 z"/><g> <path style="fill:#FF6464;" d="M264.828,70.621h-17.655c-4.875,0-8.828,3.953-8.828,8.828v52.966c0,4.875,3.953,8.828,8.828,8.828 h17.655c4.875,0,8.828-3.953,8.828-8.828V79.448C273.655,74.573,269.703,70.621,264.828,70.621z"/> <path style="fill:#FF6464;" d="M256,476.69c5.121,0,10.112-1.035,14.836-3.078c23.825-10.285,81.138-36.538,126.173-68.948 c-0.079-6.423-0.185-13.699-0.328-21.775c-44.589,34.741-107.743,63.68-132.845,74.517c-5,2.164-10.673,2.164-15.672,0 c-25.1-10.836-88.247-39.773-132.845-74.51c-0.142,8.072-0.248,15.346-0.327,21.768c45.039,32.415,102.348,58.666,126.173,68.95 C245.888,475.656,250.879,476.69,256,476.69z"/> </g><path style="fill:#515262;" d="M229.296,266.782c0.143,4.503,1.434,8.896,3.753,12.76l15.382,25.635 c1.715,2.857,4.642,4.286,7.57,4.286c2.927,0,5.855-1.428,7.57-4.286l15.382-25.635c2.318-3.864,3.61-8.256,3.753-12.76 l3.254-102.533l-23.718,23.718c-3.447,3.447-9.037,3.447-12.484,0l-23.718-23.718L229.296,266.782z"/><g> <circle style="fill:#FF6464;" cx="256" cy="229.517" r="8.828"/> <circle style="fill:#FF6464;" cx="256" cy="264.828" r="8.828"/> </g></symbol><symbol id="lightnings" viewBox="0 0 512 512"><title>lightnings</title><path style="fill:#FFD782;" d="M317.033,0H173.568c-8.877,0-16.374,6.592-17.51,15.395l-31.322,242.74 c-0.998,7.729,5.747,14.229,13.433,12.948l74.547-12.425c7.837-1.306,14.643,5.462,13.382,13.305l-37.807,235.108 c-0.77,4.62,5.437,6.867,7.803,2.825L386.06,185.373c4.04-6.902-1.909-15.355-9.769-13.88l-112.936,21.175 c-3.539,0.663-6.408-2.856-5.045-6.188l69.638-170.224C331.12,8.499,325.414,0,317.033,0z"/><path style="fill:#FFC36E;" d="M195.424,217.514L232.927,0h-59.36c-8.877,0-16.374,6.591-17.51,15.395l-31.322,242.741 c-0.998,7.729,5.747,14.229,13.433,12.948l74.547-12.425c7.837-1.307,14.643,5.462,13.382,13.305L188.29,507.073 c-0.362,2.173,0.838,3.785,2.436,4.501l92.227-268.995c3.524-10.279-4.716-20.776-15.539-19.793l-61.929,5.63 C199.365,228.972,194.38,223.572,195.424,217.514z"/></symbol><symbol id="gamer" viewBox="0 0 512 512"><title>gamer</title><path style="fill:#FFD782;" d="M209.638,244.628l129.736-95.594c6.241-4.599,7.204-13.545,2.155-19.428 c-40.358-47.019-102.755-74.557-171.218-66.385C81.862,73.778,10.999,145.353,1.223,233.893 c-12.937,117.155,78.443,216.313,192.983,216.313c58.996,0,111.782-26.358,147.389-67.889c5.021-5.856,3.992-14.775-2.218-19.35 L209.638,267.37C201.977,261.725,201.977,250.274,209.638,244.628z"/><path style="fill:#FFC36E;" d="M255.491,406.068c-114.54,0-205.92-99.157-192.984-216.313 c4.675-42.346,23.433-80.712,51.296-110.476C53.119,107.021,8.797,165.293,1.223,233.892 c-12.937,117.156,78.443,216.314,192.983,216.314c55.956,0,106.298-23.738,141.721-61.62 C311.421,399.783,284.203,406.068,255.491,406.068z"/><circle style="fill:#FFD782;" cx="397.241" cy="255.999" r="26.483"/><path style="fill:#FFC36E;" d="M408.275,269.241c-13.407,0-24.276-10.869-24.276-24.276c0-5.134,1.614-9.88,4.335-13.802 c-10.222,3.669-17.577,13.351-17.577,24.836c0,14.626,11.857,26.483,26.483,26.483c11.486,0,21.167-7.354,24.836-17.577 C418.156,267.625,413.41,269.241,408.275,269.241z"/><circle style="fill:#FFD782;" cx="485.517" cy="255.999" r="26.483"/><path style="fill:#FFC36E;" d="M496.551,269.241c-13.407,0-24.276-10.869-24.276-24.276c0-5.134,1.614-9.88,4.335-13.802 c-10.222,3.669-17.577,13.351-17.577,24.836c0,14.626,11.857,26.483,26.483,26.483c11.486,0,21.167-7.354,24.836-17.577 C506.432,267.625,501.686,269.241,496.551,269.241z"/><circle style="fill:#FFD782;" cx="308.965" cy="255.999" r="26.483"/><path style="fill:#FFC36E;" d="M320,269.241c-13.407,0-24.276-10.869-24.276-24.276c0-5.134,1.614-9.88,4.335-13.802 c-10.222,3.669-17.577,13.351-17.577,24.836c0,14.626,11.857,26.483,26.483,26.483c11.486,0,21.167-7.354,24.836-17.577 C329.88,267.625,325.134,269.241,320,269.241z"/><circle style="fill:#5B5D6E;" cx="220.689" cy="150.068" r="26.483"/><path style="fill:#464655;" d="M231.724,163.31c-13.407,0-24.276-10.869-24.276-24.276c0-5.134,1.614-9.88,4.335-13.802 c-10.222,3.669-17.577,13.351-17.577,24.836c0,14.626,11.857,26.483,26.483,26.483c11.486,0,21.167-7.354,24.836-17.577 C241.604,161.694,236.858,163.31,231.724,163.31z"/></symbol><symbol id="sand-clock" viewBox="0 0 512 512"><title>sand-clock</title><path style="fill:#E4EAF6;" d="M273.133,256c0-36.414,91.586-66.207,97.103-132.414c3.133-37.586-8.828-61.793-8.828-61.793H150.593 c0,0-11.96,24.207-8.828,61.793c5.517,66.207,97.103,96,97.103,132.414s-91.586,66.207-97.103,132.414 c-3.133,37.586,8.828,61.793,8.828,61.793h210.816c0,0,11.96-24.207,8.828-61.793C364.719,322.207,273.133,292.414,273.133,256z"/><circle style="fill:#EFF2F8;" cx="276.922" cy="155.63" r="32.044"/><path style="fill:#D7DEED;" d="M212.084,388.414c2.334-66.207,41.082-96,41.082-132.414s-38.749-66.207-41.082-132.414 c-1.325-37.586,3.735-61.793,3.735-61.793h-65.226c0,0-11.96,24.207-8.828,61.793c5.517,66.207,97.103,96,97.103,132.414 s-91.586,66.207-97.103,132.414c-3.133,37.586,8.828,61.793,8.828,61.793h65.226C215.82,450.207,210.759,425.999,212.084,388.414z"/><path style="fill:#D2AA82;" d="M398.833,44.138H113.168c-4.207,0-7.831-2.97-8.657-7.096l-5.297-26.483 C98.124,5.097,102.301,0,107.871,0h296.257c5.57,0,9.749,5.097,8.657,10.559l-5.297,26.483 C406.663,41.167,403.041,44.138,398.833,44.138z"/><path style="fill:#BE876B;" d="M363.768,61.793H148.235c-4.285,0-8.203-2.421-10.119-6.254l-5.702-11.401h247.172l-5.7,11.401 C371.97,59.372,368.052,61.793,363.768,61.793z"/><g> <path style="fill:#E1BE91;" d="M352.642,389.88c-0.295-3.532-0.954-6.955-1.881-10.294h-15.311 c-43.879,0-79.448-35.57-79.448-79.448c0,43.879-35.57,79.448-79.448,79.448h-15.311c-0.926,3.339-1.587,6.762-1.881,10.294 c-1.557,18.682,1.167,33.565,3.682,42.671h185.922C351.47,423.471,354.201,408.579,352.642,389.88z"/> <path style="fill:#E1BE91;" d="M169.148,150.069c10.557,17.137,27.846,31.747,43.763,45.153 c20.364,17.152,39.703,33.439,43.091,54.289c3.388-20.85,22.727-37.137,43.091-54.289c15.917-13.406,33.206-28.018,43.763-45.153 H169.148z"/> </g><g> <path style="fill:#D2AA82;" d="M215.215,150.069h-46.067c10.557,17.137,27.846,31.747,43.763,45.153 c12.984,10.936,25.505,21.533,33.788,33.173C237.741,206.968,221.961,183.874,215.215,150.069z"/> <path style="fill:#D2AA82;" d="M212.084,388.414c0.226-6.397,0.875-12.36,1.714-18.115c-11.113,5.911-23.78,9.288-37.246,9.288 h-15.311c-0.926,3.339-1.587,6.762-1.881,10.294c-1.557,18.682,1.167,33.565,3.682,42.671h50.332 C212.311,421.842,211.438,406.735,212.084,388.414z"/> </g><rect x="114.759" y="44.138" style="fill:#C89876;" width="17.655" height="423.724"/><circle style="fill:#BE876B;" cx="123.587" cy="256" r="17.655"/><rect x="379.587" y="44.138" style="fill:#C89876;" width="17.655" height="423.724"/><circle style="fill:#BE876B;" cx="388.414" cy="256" r="17.655"/><path style="fill:#C89876;" d="M203.554,37.042l-5.297-26.483C197.164,5.097,201.342,0,206.913,0h-99.041 c-5.57,0-9.748,5.097-8.657,10.559l5.297,26.483c0.825,4.126,4.449,7.096,8.658,7.096h99.04 C208.002,44.138,204.378,41.167,203.554,37.042z"/><path style="fill:#D2AA82;" d="M398.833,467.862H113.168c-4.207,0-7.831,2.97-8.657,7.096l-5.297,26.483 C98.122,506.903,102.3,512,107.871,512h296.257c5.57,0,9.749-5.097,8.657-10.559l-5.297-26.483 C406.663,470.833,403.041,467.862,398.833,467.862z"/><path style="fill:#BE876B;" d="M148.233,450.207h215.533c4.285,0,8.203,2.421,10.119,6.254l5.702,11.401H132.414l5.7-11.401 C140.031,452.628,143.949,450.207,148.233,450.207z"/><path style="fill:#C89876;" d="M203.554,474.958l-5.297,26.483c-1.092,5.462,3.085,10.559,8.657,10.559h-99.042 c-5.57,0-9.748-5.097-8.657-10.559l5.297-26.483c0.825-4.126,4.448-7.096,8.657-7.096h99.04 C208.002,467.862,204.378,470.833,203.554,474.958z"/><circle style="fill:#FFFFFF;" cx="328.994" cy="103.559" r="20.028"/><path style="fill:#EAD2B2;" d="M270.76,187.076c17.366,3.402,34.201-7.919,37.602-25.284c0.782-3.994,0.704-7.942,0.034-11.723 h-62.976C242.392,167.221,253.594,183.714,270.76,187.076z"/></symbol><symbol id="pacman" viewBox="0 0 512.001 512.001"><title>pacman</title><path style="fill:#FFA05A;" d="M248.399,0.135C135.421,4.152,47.514,100.436,47.514,213.484V508.8c0,2.792,3.432,4.127,5.319,2.069 l57.191-62.39c3.756-4.098,10.216-4.098,13.971,0l55.336,60.365c3.858,4.209,10.493,4.209,14.35,0l55.334-60.365 c3.756-4.098,10.216-4.098,13.971,0l55.334,60.365c3.858,4.209,10.493,4.209,14.35,0l55.336-60.365 c3.756-4.098,10.216-4.098,13.971,0l57.191,62.39c1.887,2.059,5.319,0.724,5.319-2.069V208.486 C464.489,90.819,367.009-4.082,248.399,0.135z"/><path style="fill:#F08C46;" d="M151.758,227.632c0-107.205,79.072-199.275,183.593-211.938 C308.687,4.707,279.273-0.963,248.399,0.135C135.421,4.152,47.514,100.436,47.514,213.484V508.8c0,2.792,3.432,4.127,5.319,2.069 l57.191-62.39c3.755-4.098,10.216-4.098,13.971,0l27.762,30.285V227.632H151.758z"/><path style="fill:#FFFFFF;" d="M186.385,303.255L186.385,303.255c-31.001,0-56.132-25.131-56.132-56.132v-20.412 c0-31.001,25.131-56.132,56.132-56.132l0,0c31.001,0,56.132,25.131,56.132,56.132v20.412 C242.515,278.124,217.385,303.255,186.385,303.255z"/><path style="fill:#E4EAF6;" d="M217.002,293.049c-31.001,0-56.132-25.131-56.132-56.132v-20.412 c0-18.952,9.419-35.676,23.803-45.839c-30.201,0.912-54.421,25.621-54.421,56.045v20.412c0,31.001,25.131,56.132,56.132,56.132 c12.048,0,23.184-3.831,32.327-10.292C218.139,292.98,217.579,293.049,217.002,293.049z"/><path style="fill:#82B9FF;" d="M201.693,262.431L201.693,262.431c-11.273,0-20.412-9.138-20.412-20.412v-10.205 c0-11.273,9.138-20.412,20.412-20.412l0,0c11.273,0,20.412,9.138,20.412,20.412v10.205 C222.105,253.294,212.966,262.431,201.693,262.431z"/><path style="fill:#FFFFFF;" d="M325.619,303.255L325.619,303.255c-31.001,0-56.132-25.131-56.132-56.132v-20.412 c0-31.001,25.131-56.132,56.132-56.132l0,0c31.001,0,56.132,25.131,56.132,56.132v20.412 C381.75,278.124,356.619,303.255,325.619,303.255z"/><path style="fill:#E4EAF6;" d="M356.236,293.049c-31.001,0-56.132-25.131-56.132-56.132v-20.412 c0-18.952,9.419-35.676,23.804-45.839c-30.201,0.912-54.421,25.621-54.421,56.045v20.412c0,31.001,25.131,56.132,56.132,56.132 c12.048,0,23.184-3.831,32.327-10.292C357.374,292.98,356.814,293.049,356.236,293.049z"/><path style="fill:#82B9FF;" d="M340.927,262.431L340.927,262.431c-11.273,0-20.412-9.138-20.412-20.412v-10.205 c0-11.273,9.138-20.412,20.412-20.412l0,0c11.273,0,20.412,9.138,20.412,20.412v10.205 C361.339,253.294,352.201,262.431,340.927,262.431z"/></symbol><symbol id="rocket-ship-launch" viewBox="0 0 512 512"><title>rocket-ship-launch</title><g> <path style="fill:#FFE164;" d="M132.412,467.862L132.412,467.862c-4.875,0-8.828-3.953-8.828-8.828V335.446 c0-4.875,3.953-8.828,8.828-8.828l0,0c4.875,0,8.828,3.953,8.828,8.828v123.588C141.24,463.909,137.287,467.862,132.412,467.862z"/> <path style="fill:#FFE164;" d="M379.589,467.862L379.589,467.862c-4.875,0-8.828-3.953-8.828-8.828V335.446 c0-4.875,3.953-8.828,8.828-8.828l0,0c4.875,0,8.828,3.953,8.828,8.828v123.588C388.417,463.909,384.464,467.862,379.589,467.862z"/> <path style="fill:#FFE164;" d="M344.278,370.756L344.278,370.756c-4.875,0-8.828-3.953-8.828-8.828v-97.105 c0-4.875,3.953-8.828,8.828-8.828l0,0c4.875,0,8.828,3.953,8.828,8.828v97.105C353.106,366.804,349.153,370.756,344.278,370.756z"/> <path style="fill:#FFE164;" d="M167.723,370.756L167.723,370.756c-4.875,0-8.828-3.953-8.828-8.828v-97.105 c0-4.875,3.953-8.828,8.828-8.828l0,0c4.875,0,8.828,3.953,8.828,8.828v97.105C176.551,366.804,172.598,370.756,167.723,370.756z"/> </g><path style="fill:#FF6464;" d="M256,150.063l-125.79,100.632c-4.188,3.35-6.626,8.423-6.626,13.787v44.481L256,282.479 l132.416,26.483v-44.481c0-5.364-2.438-10.437-6.626-13.787L256,150.063z"/><path style="fill:#FFE164;" d="M225.103,361.906c0,29.551,3.571,93.193,24.392,145.365c2.516,6.305,10.494,6.305,13.01,0 c20.821-52.172,24.392-115.814,24.392-145.365H225.103z"/><path style="fill:#FFFFFF;" d="M238.345,361.906c0,14.173,2.452,46.271,17.655,70.032c15.204-23.761,17.655-55.859,17.655-70.032 H238.345z"/><path style="fill:#959CB3;" d="M299.876,350.958l-10.499-41.997h-66.753l-10.499,41.997c-0.66,2.638-0.065,5.431,1.608,7.573 s4.237,3.396,6.957,3.396h70.622c2.72,0,5.285-1.255,6.957-3.396C299.942,356.389,300.535,353.596,299.876,350.958z"/><path style="fill:#707487;" d="M238.609,350.958l10.499-41.997h-26.483l-10.499,41.997c-0.66,2.638-0.065,5.431,1.608,7.573 s4.237,3.396,6.957,3.396h26.483c-2.72,0-5.285-1.255-6.957-3.396S237.949,353.596,238.609,350.958z"/><path style="fill:#E4EAF6;" d="M248.639,4.316l-41.109,73.457c-2.948,5.269-4.497,11.207-4.497,17.245v213.945 c0,9.751,7.904,17.655,17.655,17.655h70.622c9.751,0,17.655-7.904,17.655-17.655V95.013c0-6.038-1.548-11.976-4.498-17.245 L263.362,4.316C260.141-1.439,251.86-1.439,248.639,4.316z"/><path style="fill:#C7CFE2;" d="M238.345,308.962V95.018c0-6.038,0.644-11.976,1.874-17.244l17.128-73.457 c0.321-1.474,0.898-2.664,1.581-3.729c-3.669-1.35-8.118-0.15-10.289,3.729l-41.109,73.456c-2.948,5.269-4.497,11.206-4.497,17.244 v213.945c0,9.75,7.905,17.655,17.655,17.655h25.012C241.639,326.618,238.345,318.713,238.345,308.962z"/><path style="fill:#FF6464;" d="M263.362,4.316c-3.22-5.753-11.501-5.753-14.721,0l-41.11,73.457 c-2.948,5.269-4.497,11.206-4.497,17.244v46.218h105.933V95.013c0-6.038-1.548-11.976-4.498-17.245L263.362,4.316z"/><path style="fill:#D2555A;" d="M238.345,95.018c0-6.038,0.644-11.976,1.874-17.244l17.128-73.457 c0.321-1.474,0.898-2.664,1.581-3.729c-1.788-0.658-3.755-0.686-5.559-0.119c-0.135,0.044-0.262,0.108-0.393,0.158 c-0.689,0.256-1.334,0.626-1.944,1.069c-0.19,0.14-0.386,0.269-0.566,0.428c-0.694,0.607-1.333,1.31-1.826,2.193l-41.109,73.456 c-2.948,5.269-4.497,11.206-4.497,17.244v46.218h35.311V95.018z"/><path style="fill:#C7CFE2;" d="M308.967,141.235H203.034v17.655h22.637c6.089,10.511,17.302,17.655,30.33,17.655 c13.028,0,24.241-7.145,30.33-17.655h22.637V141.235z"/><circle style="fill:#5B5D6E;" cx="256.005" cy="141.233" r="17.655"/><path style="fill:#AFB9D2;" d="M238.345,171.716v-30.482h-35.311v17.655h22.637C228.736,164.182,233.105,168.613,238.345,171.716z"/><path style="fill:#707487;" d="M248.64,4.316l-32.162,57.47h79.047l-32.164-57.47C260.141-1.439,251.86-1.439,248.64,4.316z"/><path style="fill:#5B5D6E;" d="M243.947,61.786l13.401-57.47c0.321-1.474,0.898-2.664,1.581-3.729 c-1.788-0.658-3.755-0.686-5.559-0.119c-0.036,0.012-0.072,0.031-0.108,0.044c-0.095,0.039-0.189,0.078-0.285,0.115 c-0.689,0.256-1.334,0.626-1.944,1.069c-0.066,0.049-0.131,0.102-0.198,0.149c-0.121,0.095-0.252,0.177-0.369,0.279 c-0.693,0.606-1.332,1.31-1.825,2.191l-32.162,57.47H243.947z"/><g> <polygon style="fill:#D2555A;" points="123.584,308.962 203.034,293.072 203.034,255.996 123.584,277.182 "/> <polygon style="fill:#D2555A;" points="388.417,308.962 308.967,293.072 308.967,255.996 388.417,277.182 "/> </g><g> <path style="fill:#AFB9D2;" d="M132.412,264.824L132.412,264.824c-4.875,0-8.828,3.953-8.828,8.828v70.622 c0,4.875,3.953,8.828,8.828,8.828l0,0c4.875,0,8.828-3.953,8.828-8.828v-70.622C141.24,268.776,137.287,264.824,132.412,264.824z"/> <path style="fill:#AFB9D2;" d="M167.723,255.996L167.723,255.996c-4.875,0-8.828,3.953-8.828,8.828v44.139 c0,4.875,3.953,8.828,8.828,8.828l0,0c4.875,0,8.828-3.953,8.828-8.828v-44.139C176.551,259.948,172.598,255.996,167.723,255.996z"/> <path style="fill:#AFB9D2;" d="M379.589,264.824L379.589,264.824c4.875,0,8.828,3.953,8.828,8.828v70.622 c0,4.875-3.953,8.828-8.828,8.828l0,0c-4.875,0-8.828-3.953-8.828-8.828v-70.622C370.761,268.776,374.714,264.824,379.589,264.824z "/> <path style="fill:#AFB9D2;" d="M344.278,255.996L344.278,255.996c4.875,0,8.828,3.953,8.828,8.828v44.139 c0,4.875-3.953,8.828-8.828,8.828l0,0c-4.875,0-8.828-3.953-8.828-8.828v-44.139C335.45,259.948,339.403,255.996,344.278,255.996z"/> </g><g> <circle style="fill:#959CB3;" cx="132.582" cy="273.484" r="8.999"/> <circle style="fill:#959CB3;" cx="167.727" cy="264.821" r="8.999"/> <circle style="fill:#959CB3;" cx="379.417" cy="273.484" r="8.999"/> <circle style="fill:#959CB3;" cx="344.282" cy="264.821" r="8.999"/> </g><g> <path style="fill:#C7CFE2;" d="M256,291.307L256,291.307c4.875,0,8.828-3.953,8.828-8.828v-35.311c0-4.875-3.953-8.828-8.828-8.828 l0,0c-4.875,0-8.828,3.953-8.828,8.828v35.311C247.173,287.354,251.125,291.307,256,291.307z"/> <path style="fill:#C7CFE2;" d="M282.484,291.307L282.484,291.307c4.875,0,8.828-3.953,8.828-8.828v-35.311 c0-4.875-3.953-8.828-8.828-8.828l0,0c-4.875,0-8.828,3.953-8.828,8.828v35.311C273.656,287.354,277.609,291.307,282.484,291.307z"/> </g><path style="fill:#AFB9D2;" d="M229.517,291.307L229.517,291.307c4.875,0,8.828-3.953,8.828-8.828v-35.311 c0-4.875-3.953-8.828-8.828-8.828l0,0c-4.875,0-8.828,3.953-8.828,8.828v35.311C220.689,287.354,224.642,291.307,229.517,291.307z"/></symbol><symbol id="badge" viewBox="0 0 512 512"><title>badge</title><path style="fill:#FF6464;" d="M425.797,467.737l-40.17,4.791l-24.234,32.392c-7.593,10.15-23.09,9.228-29.427-1.749 L212.941,297.012l107.029-61.793l119.026,206.161C445.334,452.355,438.383,466.237,425.797,467.737z"/><path style="fill:#D2555A;" d="M372.386,449.593L372.386,449.593c-4.222,2.438-9.621,0.991-12.059-3.231l-88.276-152.898 c-2.438-4.222-0.991-9.621,3.231-12.058l0,0c4.222-2.438,9.621-0.991,12.058,3.231l88.276,152.898 C378.055,441.757,376.608,447.156,372.386,449.593z"/><path style="fill:#FF6464;" d="M86.202,467.737l40.17,4.791l24.234,32.392c7.593,10.15,23.09,9.228,29.427-1.749L299.06,297.012 l-107.029-61.793L73.004,441.379C66.666,452.355,73.617,466.237,86.202,467.737z"/><g> <path style="fill:#D2555A;" d="M398.597,371.407l-78.628-136.189H192.03l-78.628,136.189 c31.516,26.718,70.615,44.719,113.628,50.364L256,371.592l28.97,50.178C327.982,416.127,367.083,398.125,398.597,371.407z"/> <path style="fill:#D2555A;" d="M139.614,449.593L139.614,449.593c4.222,2.438,9.621,0.991,12.058-3.231l88.276-152.898 c2.438-4.222,0.991-9.621-3.231-12.058l0,0c-4.222-2.438-9.621-0.991-12.058,3.231l-88.276,152.898 C133.945,441.757,135.392,447.156,139.614,449.593z"/> </g><circle style="fill:#FFD782;" cx="256" cy="203.034" r="203.034"/><g> <path style="fill:#FFC36E;" d="M335.448,326.621c-107.257,0-194.207-86.95-194.207-194.207c0-44.491,14.995-85.46,40.161-118.206 C106.194,43.947,52.965,117.25,52.965,203.034c0,112.132,90.901,203.034,203.034,203.034c77.304,0,144.505-43.21,178.802-106.787 C405.729,316.628,371.762,326.621,335.448,326.621z"/> <path style="fill:#FFC36E;" d="M256,388.414c-102.216,0-185.379-83.164-185.379-185.379S153.784,17.655,256,17.655 s185.379,83.164,185.379,185.379S358.216,388.414,256,388.414z M256,35.31c-92.483,0-167.724,75.242-167.724,167.724 S163.518,370.759,256,370.759s167.724-75.242,167.724-167.724S348.483,35.31,256,35.31z"/> </g><circle style="fill:#FFE3A8;" cx="256" cy="203.034" r="150.069"/><path style="fill:#FFD782;" d="M335.448,326.621c-107.257,0-194.207-86.95-194.207-194.207c0-9.602,0.725-19.033,2.07-28.262 c-23.202,26.42-37.38,60.957-37.38,98.882c0,82.881,67.188,150.069,150.069,150.069c31.68,0,61.024-9.873,85.242-26.63 C339.313,326.53,337.391,326.621,335.448,326.621z"/><path style="fill:#E1B464;" d="M373.029,322.953c-30.248,29.526-71.522,47.806-117.03,47.806 c-92.483,0-167.724-75.242-167.724-167.724c0-52.584,24.367-99.541,62.355-130.317c3.348-10.371,7.552-20.351,12.515-29.879 c-55.222,32.139-92.525,91.831-92.525,160.196c0,102.216,83.164,185.379,185.379,185.379c60.527,0,114.207-29.293,148.062-74.303 C394.082,317.882,383.716,320.857,373.029,322.953z"/><g> <path style="fill:#FFFFFF;" d="M384.299,89.878c-18.099-4.126-32.345-18.374-36.471-36.471c-0.311-1.363-2.115-1.363-2.425,0 c-4.126,18.099-18.374,32.345-36.471,36.471c-1.363,0.311-1.363,2.115,0,2.425c18.099,4.126,32.345,18.372,36.471,36.471 c0.311,1.363,2.115,1.363,2.425,0c4.126-18.099,18.374-32.345,36.471-36.471C385.662,91.993,385.662,90.189,384.299,89.878z"/> <path style="fill:#FFFFFF;" d="M321.578,142.345c-11.017-2.854-19.691-11.527-22.543-22.543c-0.287-1.107-1.719-1.107-2.006,0 c-2.854,11.017-11.527,19.691-22.543,22.543c-1.107,0.287-1.107,1.719,0,2.006c11.017,2.854,19.691,11.527,22.543,22.543 c0.287,1.107,1.719,1.107,2.006,0c2.854-11.017,11.527-19.691,22.543-22.543C322.686,144.064,322.686,142.632,321.578,142.345z"/> </g></symbol><symbol id="computing" viewBox="0 0 512 512"><title>computing</title><path style="fill:#AEB5CA;" d="M317.793,353.103H194.207v-18.464c0-5.228-1.548-10.339-4.448-14.69l-13.207-19.811h158.897 l-13.207,19.811c-2.9,4.35-4.448,9.462-4.448,14.69V353.103z"/><path style="fill:#C7CFE2;" d="M494.345,308.966H17.655C7.904,308.966,0,301.062,0,291.31V17.655C0,7.904,7.904,0,17.655,0h476.69 C504.096,0,512,7.904,512,17.655V291.31C512,301.062,504.096,308.966,494.345,308.966z"/><path style="fill:#464655;" d="M485.517,273.655H26.483c-4.875,0-8.828-3.953-8.828-8.828V26.483c0-4.875,3.953-8.828,8.828-8.828 h459.034c4.875,0,8.828,3.953,8.828,8.828v238.345C494.345,269.703,490.392,273.655,485.517,273.655z"/><path style="fill:#D7DEED;" d="M277.027,291.31h-42.054c-3.343,0-6.4,1.889-7.895,4.879l-6.389,12.776h70.621l-6.388-12.776 C283.427,293.199,280.371,291.31,277.027,291.31z"/><path style="fill:#C7CFE2;" d="M361.931,361.931H150.069c-4.875,0-8.828-3.953-8.828-8.828l0,0c0-4.875,3.953-8.828,8.828-8.828 h211.862c4.875,0,8.828,3.953,8.828,8.828l0,0C370.759,357.978,366.806,361.931,361.931,361.931z"/><path style="fill:#707487;" d="M379.586,512H17.655C7.904,512,0,504.096,0,494.345v-97.103c0-9.751,7.904-17.655,17.655-17.655 h361.931c9.751,0,17.655,7.904,17.655,17.655v97.103C397.241,504.096,389.337,512,379.586,512z"/><g> <path style="fill:#5B5D6E;" d="M26.483,441.379L26.483,441.379c-4.875,0-8.828-3.953-8.828-8.828l0,0 c0-4.875,3.953-8.828,8.828-8.828l0,0c4.875,0,8.828,3.953,8.828,8.828l0,0C35.31,437.427,31.358,441.379,26.483,441.379z"/> <path style="fill:#5B5D6E;" d="M52.966,441.379L52.966,441.379c-4.875,0-8.828-3.953-8.828-8.828l0,0 c0-4.875,3.953-8.828,8.828-8.828l0,0c4.875,0,8.828,3.953,8.828,8.828l0,0C61.793,437.427,57.841,441.379,52.966,441.379z"/> <path style="fill:#5B5D6E;" d="M79.448,467.862L79.448,467.862c-4.875,0-8.828-3.953-8.828-8.828l0,0 c0-4.875,3.953-8.828,8.828-8.828l0,0c4.875,0,8.828,3.953,8.828,8.828l0,0C88.276,463.91,84.323,467.862,79.448,467.862z"/> <path style="fill:#5B5D6E;" d="M105.931,467.862L105.931,467.862c-4.875,0-8.828-3.953-8.828-8.828l0,0 c0-4.875,3.953-8.828,8.828-8.828l0,0c4.875,0,8.828,3.953,8.828,8.828l0,0C114.759,463.91,110.806,467.862,105.931,467.862z"/> <path style="fill:#5B5D6E;" d="M79.448,441.379L79.448,441.379c-4.875,0-8.828-3.953-8.828-8.828l0,0 c0-4.875,3.953-8.828,8.828-8.828l0,0c4.875,0,8.828,3.953,8.828,8.828l0,0C88.276,437.427,84.323,441.379,79.448,441.379z"/> <path style="fill:#5B5D6E;" d="M105.931,441.379L105.931,441.379c-4.875,0-8.828-3.953-8.828-8.828l0,0 c0-4.875,3.953-8.828,8.828-8.828l0,0c4.875,0,8.828,3.953,8.828,8.828l0,0C114.759,437.427,110.806,441.379,105.931,441.379z"/> <path style="fill:#5B5D6E;" d="M132.414,467.862L132.414,467.862c-4.875,0-8.828-3.953-8.828-8.828l0,0 c0-4.875,3.953-8.828,8.828-8.828l0,0c4.875,0,8.828,3.953,8.828,8.828l0,0C141.241,463.91,137.289,467.862,132.414,467.862z"/> <path style="fill:#5B5D6E;" d="M158.897,467.862L158.897,467.862c-4.875,0-8.828-3.953-8.828-8.828l0,0 c0-4.875,3.953-8.828,8.828-8.828l0,0c4.875,0,8.828,3.953,8.828,8.828l0,0C167.724,463.91,163.772,467.862,158.897,467.862z"/> <path style="fill:#5B5D6E;" d="M132.414,441.379L132.414,441.379c-4.875,0-8.828-3.953-8.828-8.828l0,0 c0-4.875,3.953-8.828,8.828-8.828l0,0c4.875,0,8.828,3.953,8.828,8.828l0,0C141.241,437.427,137.289,441.379,132.414,441.379z"/> <path style="fill:#5B5D6E;" d="M158.897,441.379L158.897,441.379c-4.875,0-8.828-3.953-8.828-8.828l0,0 c0-4.875,3.953-8.828,8.828-8.828l0,0c4.875,0,8.828,3.953,8.828,8.828l0,0C167.724,437.427,163.772,441.379,158.897,441.379z"/> <path style="fill:#5B5D6E;" d="M185.379,467.862L185.379,467.862c-4.875,0-8.828-3.953-8.828-8.828l0,0 c0-4.875,3.953-8.828,8.828-8.828l0,0c4.875,0,8.828,3.953,8.828,8.828l0,0C194.207,463.91,190.254,467.862,185.379,467.862z"/> <path style="fill:#5B5D6E;" d="M211.862,467.862L211.862,467.862c-4.875,0-8.828-3.953-8.828-8.828l0,0 c0-4.875,3.953-8.828,8.828-8.828l0,0c4.875,0,8.828,3.953,8.828,8.828l0,0C220.69,463.91,216.737,467.862,211.862,467.862z"/> <path style="fill:#5B5D6E;" d="M185.379,441.379L185.379,441.379c-4.875,0-8.828-3.953-8.828-8.828l0,0 c0-4.875,3.953-8.828,8.828-8.828l0,0c4.875,0,8.828,3.953,8.828,8.828l0,0C194.207,437.427,190.254,441.379,185.379,441.379z"/> <path style="fill:#5B5D6E;" d="M211.862,441.379L211.862,441.379c-4.875,0-8.828-3.953-8.828-8.828l0,0 c0-4.875,3.953-8.828,8.828-8.828l0,0c4.875,0,8.828,3.953,8.828,8.828l0,0C220.69,437.427,216.737,441.379,211.862,441.379z"/> <path style="fill:#5B5D6E;" d="M238.345,467.862L238.345,467.862c-4.875,0-8.828-3.953-8.828-8.828l0,0 c0-4.875,3.953-8.828,8.828-8.828l0,0c4.875,0,8.828,3.953,8.828,8.828l0,0C247.172,463.91,243.22,467.862,238.345,467.862z"/> <path style="fill:#5B5D6E;" d="M264.828,467.862L264.828,467.862c-4.875,0-8.828-3.953-8.828-8.828l0,0 c0-4.875,3.953-8.828,8.828-8.828l0,0c4.875,0,8.828,3.953,8.828,8.828l0,0C273.655,463.91,269.703,467.862,264.828,467.862z"/> <path style="fill:#5B5D6E;" d="M238.345,441.379L238.345,441.379c-4.875,0-8.828-3.953-8.828-8.828l0,0 c0-4.875,3.953-8.828,8.828-8.828l0,0c4.875,0,8.828,3.953,8.828,8.828l0,0C247.172,437.427,243.22,441.379,238.345,441.379z"/> <path style="fill:#5B5D6E;" d="M264.828,441.379L264.828,441.379c-4.875,0-8.828-3.953-8.828-8.828l0,0 c0-4.875,3.953-8.828,8.828-8.828l0,0c4.875,0,8.828,3.953,8.828,8.828l0,0C273.655,437.427,269.703,441.379,264.828,441.379z"/> <path style="fill:#5B5D6E;" d="M291.31,467.862L291.31,467.862c-4.875,0-8.828-3.953-8.828-8.828l0,0 c0-4.875,3.953-8.828,8.828-8.828l0,0c4.875,0,8.828,3.953,8.828,8.828l0,0C300.138,463.91,296.185,467.862,291.31,467.862z"/> <path style="fill:#5B5D6E;" d="M317.793,467.862L317.793,467.862c-4.875,0-8.828-3.953-8.828-8.828l0,0 c0-4.875,3.953-8.828,8.828-8.828l0,0c4.875,0,8.828,3.953,8.828,8.828l0,0C326.621,463.91,322.668,467.862,317.793,467.862z"/> <path style="fill:#5B5D6E;" d="M291.31,441.379L291.31,441.379c-4.875,0-8.828-3.953-8.828-8.828l0,0 c0-4.875,3.953-8.828,8.828-8.828l0,0c4.875,0,8.828,3.953,8.828,8.828l0,0C300.138,437.427,296.185,441.379,291.31,441.379z"/> <path style="fill:#5B5D6E;" d="M317.793,441.379L317.793,441.379c-4.875,0-8.828-3.953-8.828-8.828l0,0 c0-4.875,3.953-8.828,8.828-8.828l0,0c4.875,0,8.828,3.953,8.828,8.828l0,0C326.621,437.427,322.668,441.379,317.793,441.379z"/> <path style="fill:#5B5D6E;" d="M26.483,494.345L26.483,494.345c-4.875,0-8.828-3.953-8.828-8.828l0,0 c0-4.875,3.953-8.828,8.828-8.828l0,0c4.875,0,8.828,3.953,8.828,8.828l0,0C35.31,490.392,31.358,494.345,26.483,494.345z"/> <path style="fill:#5B5D6E;" d="M52.966,494.345L52.966,494.345c-4.875,0-8.828-3.953-8.828-8.828l0,0 c0-4.875,3.953-8.828,8.828-8.828l0,0c4.875,0,8.828,3.953,8.828,8.828l0,0C61.793,490.392,57.841,494.345,52.966,494.345z"/> <path style="fill:#5B5D6E;" d="M344.276,494.345L344.276,494.345c-4.875,0-8.828-3.953-8.828-8.828l0,0 c0-4.875,3.953-8.828,8.828-8.828l0,0c4.875,0,8.828,3.953,8.828,8.828l0,0C353.103,490.392,349.151,494.345,344.276,494.345z"/> <path style="fill:#5B5D6E;" d="M370.759,494.345L370.759,494.345c-4.875,0-8.828-3.953-8.828-8.828l0,0 c0-4.875,3.953-8.828,8.828-8.828l0,0c4.875,0,8.828,3.953,8.828,8.828l0,0C379.586,490.392,375.634,494.345,370.759,494.345z"/> <path style="fill:#5B5D6E;" d="M344.276,441.379L344.276,441.379c-4.875,0-8.828-3.953-8.828-8.828l0,0 c0-4.875,3.953-8.828,8.828-8.828l0,0c4.875,0,8.828,3.953,8.828,8.828l0,0C353.103,437.427,349.151,441.379,344.276,441.379z"/> <path style="fill:#5B5D6E;" d="M370.759,441.379L370.759,441.379c-4.875,0-8.828-3.953-8.828-8.828l0,0 c0-4.875,3.953-8.828,8.828-8.828l0,0c4.875,0,8.828,3.953,8.828,8.828l0,0C379.586,437.427,375.634,441.379,370.759,441.379z"/> <path style="fill:#5B5D6E;" d="M26.483,414.897L26.483,414.897c-4.875,0-8.828-3.953-8.828-8.828l0,0 c0-4.875,3.953-8.828,8.828-8.828l0,0c4.875,0,8.828,3.953,8.828,8.828l0,0C35.31,410.944,31.358,414.897,26.483,414.897z"/> <path style="fill:#5B5D6E;" d="M52.966,414.897L52.966,414.897c-4.875,0-8.828-3.953-8.828-8.828l0,0 c0-4.875,3.953-8.828,8.828-8.828l0,0c4.875,0,8.828,3.953,8.828,8.828l0,0C61.793,410.944,57.841,414.897,52.966,414.897z"/> <path style="fill:#5B5D6E;" d="M79.448,414.897L79.448,414.897c-4.875,0-8.828-3.953-8.828-8.828l0,0 c0-4.875,3.953-8.828,8.828-8.828l0,0c4.875,0,8.828,3.953,8.828,8.828l0,0C88.276,410.944,84.323,414.897,79.448,414.897z"/> <path style="fill:#5B5D6E;" d="M105.931,414.897L105.931,414.897c-4.875,0-8.828-3.953-8.828-8.828l0,0 c0-4.875,3.953-8.828,8.828-8.828l0,0c4.875,0,8.828,3.953,8.828,8.828l0,0C114.759,410.944,110.806,414.897,105.931,414.897z"/> <path style="fill:#5B5D6E;" d="M132.414,414.897L132.414,414.897c-4.875,0-8.828-3.953-8.828-8.828l0,0 c0-4.875,3.953-8.828,8.828-8.828l0,0c4.875,0,8.828,3.953,8.828,8.828l0,0C141.241,410.944,137.289,414.897,132.414,414.897z"/> <path style="fill:#5B5D6E;" d="M158.897,414.897L158.897,414.897c-4.875,0-8.828-3.953-8.828-8.828l0,0 c0-4.875,3.953-8.828,8.828-8.828l0,0c4.875,0,8.828,3.953,8.828,8.828l0,0C167.724,410.944,163.772,414.897,158.897,414.897z"/> <path style="fill:#5B5D6E;" d="M185.379,414.897L185.379,414.897c-4.875,0-8.828-3.953-8.828-8.828l0,0 c0-4.875,3.953-8.828,8.828-8.828l0,0c4.875,0,8.828,3.953,8.828,8.828l0,0C194.207,410.944,190.254,414.897,185.379,414.897z"/> <path style="fill:#5B5D6E;" d="M211.862,414.897L211.862,414.897c-4.875,0-8.828-3.953-8.828-8.828l0,0 c0-4.875,3.953-8.828,8.828-8.828l0,0c4.875,0,8.828,3.953,8.828,8.828l0,0C220.69,410.944,216.737,414.897,211.862,414.897z"/> <path style="fill:#5B5D6E;" d="M238.345,414.897L238.345,414.897c-4.875,0-8.828-3.953-8.828-8.828l0,0 c0-4.875,3.953-8.828,8.828-8.828l0,0c4.875,0,8.828,3.953,8.828,8.828l0,0C247.172,410.944,243.22,414.897,238.345,414.897z"/> <path style="fill:#5B5D6E;" d="M264.828,414.897L264.828,414.897c-4.875,0-8.828-3.953-8.828-8.828l0,0 c0-4.875,3.953-8.828,8.828-8.828l0,0c4.875,0,8.828,3.953,8.828,8.828l0,0C273.655,410.944,269.703,414.897,264.828,414.897z"/> <path style="fill:#5B5D6E;" d="M291.31,414.897L291.31,414.897c-4.875,0-8.828-3.953-8.828-8.828l0,0 c0-4.875,3.953-8.828,8.828-8.828l0,0c4.875,0,8.828,3.953,8.828,8.828l0,0C300.138,410.944,296.185,414.897,291.31,414.897z"/> <path style="fill:#5B5D6E;" d="M317.793,414.897L317.793,414.897c-4.875,0-8.828-3.953-8.828-8.828l0,0 c0-4.875,3.953-8.828,8.828-8.828l0,0c4.875,0,8.828,3.953,8.828,8.828l0,0C326.621,410.944,322.668,414.897,317.793,414.897z"/> <path style="fill:#5B5D6E;" d="M344.276,414.897L344.276,414.897c-4.875,0-8.828-3.953-8.828-8.828l0,0 c0-4.875,3.953-8.828,8.828-8.828l0,0c4.875,0,8.828,3.953,8.828,8.828l0,0C353.103,410.944,349.151,414.897,344.276,414.897z"/> <path style="fill:#5B5D6E;" d="M370.759,414.897L370.759,414.897c-4.875,0-8.828-3.953-8.828-8.828l0,0 c0-4.875,3.953-8.828,8.828-8.828l0,0c4.875,0,8.828,3.953,8.828,8.828l0,0C379.586,410.944,375.634,414.897,370.759,414.897z"/> <path style="fill:#5B5D6E;" d="M264.828,494.345H132.414c-4.875,0-8.828-3.953-8.828-8.828l0,0c0-4.875,3.953-8.828,8.828-8.828 h132.414c4.875,0,8.828,3.953,8.828,8.828l0,0C273.655,490.392,269.703,494.345,264.828,494.345z"/> <path style="fill:#5B5D6E;" d="M105.931,494.345H79.448c-4.875,0-8.828-3.953-8.828-8.828l0,0c0-4.875,3.953-8.828,8.828-8.828 h26.483c4.875,0,8.828,3.953,8.828,8.828l0,0C114.759,490.392,110.806,494.345,105.931,494.345z"/> <path style="fill:#5B5D6E;" d="M317.793,494.345H291.31c-4.875,0-8.828-3.953-8.828-8.828l0,0c0-4.875,3.953-8.828,8.828-8.828 h26.483c4.875,0,8.828,3.953,8.828,8.828l0,0C326.621,490.392,322.668,494.345,317.793,494.345z"/> <path style="fill:#5B5D6E;" d="M52.966,467.862H26.483c-4.875,0-8.828-3.953-8.828-8.828l0,0c0-4.875,3.953-8.828,8.828-8.828 h26.483c4.875,0,8.828,3.953,8.828,8.828l0,0C61.793,463.91,57.841,467.862,52.966,467.862z"/> <path style="fill:#5B5D6E;" d="M370.759,467.862h-26.483c-4.875,0-8.828-3.953-8.828-8.828l0,0c0-4.875,3.953-8.828,8.828-8.828 h26.483c4.875,0,8.828,3.953,8.828,8.828l0,0C379.586,463.91,375.634,467.862,370.759,467.862z"/> <path style="fill:#5B5D6E;" d="M467.862,512L467.862,512C492.238,512,512,492.238,512,467.862v-61.793 c0-24.376-19.762-44.138-44.138-44.138l0,0c-24.376,0-44.138,19.762-44.138,44.138v61.793C423.724,492.238,443.486,512,467.862,512 z"/> </g><path style="fill:#464655;" d="M463.527,362.138c-22.95,2.188-39.803,22.775-39.803,45.827v15.758h13.597 c6.107,0,12.09,2.978,14.985,8.355c2.979,5.536,8.829,9.3,15.556,9.3c6.728,0,12.577-3.764,15.556-9.3 c2.894-5.377,8.878-8.355,14.985-8.355H512v-17.655C512,380.262,489.852,359.628,463.527,362.138z"/><path style="fill:#5B5D6E;" d="M467.862,414.897L467.862,414.897c-4.855,0-8.828-3.972-8.828-8.828v-8.828 c0-4.855,3.972-8.828,8.828-8.828l0,0c4.855,0,8.828,3.972,8.828,8.828v8.828C476.69,410.924,472.717,414.897,467.862,414.897z"/></symbol><symbol id="virtual-reality" viewBox="0 0 512 512"><title>virtual-reality</title><g> <path style="fill:#5B5D6E;" d="M282.483,203.034h-52.966V79.448c0-4.875,3.953-8.828,8.828-8.828h35.31 c4.875,0,8.828,3.953,8.828,8.828V203.034z"/> <path style="fill:#5B5D6E;" d="M441.379,441.379H70.621C31.618,441.379,0,409.761,0,370.759V264.828 c0-39.002,31.618-70.621,70.621-70.621h370.759c39.003,0,70.621,31.618,70.621,70.621v105.931 C512,409.761,480.382,441.379,441.379,441.379z"/> </g><g> <path style="fill:#464655;" d="M441.379,211.862c29.206,0,52.966,23.761,52.966,52.966v105.931 c0,29.205-23.759,52.966-52.966,52.966H70.621c-29.206,0-52.966-23.761-52.966-52.966V264.828 c0-29.205,23.759-52.966,52.966-52.966H441.379 M441.379,194.207H70.621C31.617,194.207,0,225.825,0,264.828v105.931 c0,39.003,31.617,70.621,70.621,70.621h370.759c39.004,0,70.621-31.618,70.621-70.621V264.828 C512,225.825,480.383,194.207,441.379,194.207L441.379,194.207z"/> <path style="fill:#464655;" d="M291.31,247.172H220.69c-4.875,0-8.828-3.953-8.828-8.828l0,0c0-4.875,3.953-8.828,8.828-8.828 h70.621c4.875,0,8.828,3.953,8.828,8.828l0,0C300.138,243.22,296.185,247.172,291.31,247.172z"/> <path style="fill:#464655;" d="M282.483,97.103h-52.966V79.448c0-4.875,3.953-8.828,8.828-8.828h35.31 c4.875,0,8.828,3.953,8.828,8.828V97.103z"/> </g></symbol><symbol id="knight" viewBox="0 0 512 512"><title>knight</title><polygon style="fill:#AEB5CA;" points="0,0.001 31.21,106.116 353.364,403.3 378.332,378.332 "/><polygon style="fill:#C7CFE2;" points="0,0.001 106.115,31.21 403.299,353.364 378.332,378.332 "/><polygon style="fill:#AEB5CA;" points="298.532,298.533 324.25,267.673 309.687,251.886 279.96,279.961 "/><rect x="416.838" y="363.885" transform="matrix(-0.7071 0.7071 -0.7071 -0.7071 1048.968 434.5139)" style="fill:#D2AA82;" width="35.31" height="141.24"/><g> <polygon style="fill:#BE876B;" points="490.688,465.721 478.205,503.173 465.72,490.689 478.205,453.236 "/> <polygon style="fill:#BE876B;" points="465.72,440.752 453.236,478.205 440.751,465.721 453.236,428.269 "/> <polygon style="fill:#BE876B;" points="440.751,415.784 428.268,453.236 415.784,440.752 428.268,403.3 "/> <polygon style="fill:#BE876B;" points="415.784,390.817 403.299,428.269 390.816,415.784 403.299,378.332 "/> </g><path style="fill:#959CB3;" d="M509.415,484.446l-24.968,24.968c-3.447,3.447-9.037,3.447-12.484,0l-6.242-6.241 c-3.447-3.447-3.447-9.037,0-12.484l24.968-24.968c3.447-3.447,9.037-3.447,12.484,0l6.242,6.242 C512.862,475.41,512.862,480.999,509.415,484.446z"/><path style="fill:#707487;" d="M403.299,365.848l-14.564,22.888L365.847,403.3l12.147,12.146c2.687,2.687,6.792,3.353,10.19,1.654 l11.382-5.69c5.125-2.562,9.281-6.718,11.843-11.843l5.691-11.382c1.699-3.399,1.033-7.503-1.654-10.19L403.299,365.848z"/><path style="fill:#D7DEED;" d="M232.103,232.103L232.103,232.103c-3.447,3.447-3.447,9.037,0,12.484l156.051,156.051l12.484-12.484 L244.587,232.103C241.14,228.656,235.55,228.656,232.103,232.103z"/><polygon style="fill:#959CB3;" points="273.004,329.169 298.532,298.533 279.96,279.961 250.165,308.101 "/><polygon style="fill:#C7CFE2;" points="292.858,305.342 304.207,291.725 286.381,273.897 273.54,286.024 "/><path style="fill:#959CB3;" d="M431.665,327.845l-30.659,61.319c-2.562,5.126-6.718,9.281-11.843,11.843l-61.319,30.659 c-3.399,1.699-7.503,1.033-10.19-1.654l-3.74-3.74c-2.178-2.178-1.78-5.814,0.82-7.468l63.597-40.471l40.471-63.597 c1.654-2.599,5.29-2.998,7.468-0.82l3.74,3.74C432.697,320.342,433.364,324.446,431.665,327.845z"/><polygon style="fill:#AEB5CA;" points="512,0.001 480.79,106.116 158.636,403.3 133.668,378.332 "/><polygon style="fill:#C7CFE2;" points="512,0.001 405.885,31.21 108.701,353.364 133.668,378.332 "/><rect x="59.824" y="363.892" transform="matrix(0.7071 0.7071 -0.7071 0.7071 329.9391 72.4797)" style="fill:#D2AA82;" width="35.31" height="141.24"/><g> <polygon style="fill:#BE876B;" points="21.312,465.721 33.795,503.173 46.28,490.689 33.795,453.236 "/> <polygon style="fill:#BE876B;" points="46.28,440.752 58.764,478.205 71.249,465.721 58.764,428.269 "/> <polygon style="fill:#BE876B;" points="71.249,415.784 83.732,453.236 96.216,440.752 83.732,403.3 "/> <polygon style="fill:#BE876B;" points="96.216,390.817 108.701,428.269 121.184,415.784 108.701,378.332 "/> </g><path style="fill:#959CB3;" d="M2.585,484.446l24.968,24.968c3.447,3.447,9.037,3.447,12.484,0l6.242-6.241 c3.447-3.447,3.447-9.037,0-12.484l-24.968-24.968c-3.447-3.447-9.037-3.447-12.484,0l-6.242,6.242 C-0.862,475.41-0.862,480.999,2.585,484.446z"/><path style="fill:#707487;" d="M108.701,365.848l14.564,22.888l22.888,14.564l-12.146,12.146c-2.687,2.687-6.792,3.353-10.19,1.654 l-11.382-5.69c-5.126-2.562-9.281-6.718-11.843-11.843l-5.69-11.382c-1.699-3.399-1.033-7.503,1.654-10.19L108.701,365.848z"/><path style="fill:#D7DEED;" d="M279.897,232.103L279.897,232.103c3.447,3.447,3.447,9.037,0,12.484L123.846,400.638l-12.484-12.484 l156.051-156.051C270.86,228.656,276.45,228.656,279.897,232.103z"/><path style="fill:#959CB3;" d="M80.335,327.845l30.659,61.319c2.562,5.126,6.718,9.281,11.843,11.843l61.318,30.659 c3.399,1.699,7.503,1.033,10.19-1.654l3.74-3.74c2.178-2.178,1.78-5.814-0.82-7.468l-63.597-40.471l-40.471-63.599 c-1.654-2.599-5.29-2.998-7.468-0.82l-3.74,3.74C79.303,320.342,78.636,324.446,80.335,327.845z"/></symbol><symbol id="game-console" viewBox="0 0 512 512"><title>game-console</title><path style="fill:#E4EAF6;" d="M450.207,100.871c-38.621-24.62-88.49-25.879-102.621-14.548 c-23.724,19.025-56.276,23.501-91.586,23.501s-67.862-4.477-91.586-23.501c-14.131-11.331-64-10.072-102.621,14.548 C34.846,118.049,0,308.462,0,360.5c0,47.001,18.676,67.748,44.138,71.621c29.426,4.477,61.793-26.858,88.276-53.716 c26.483-26.858,88.276-35.811,123.586-35.811s97.103,8.952,123.586,35.811c26.483,26.858,58.85,58.193,88.276,53.716 C493.324,428.248,512,407.501,512,360.5C512,308.462,477.154,118.049,450.207,100.871z"/><circle style="fill:#D7DEED;" cx="176.552" cy="264.828" r="52.966"/><circle style="fill:#C7CFE2;" cx="256" cy="176.552" r="26.483"/><path style="fill:#D7DEED;" d="M450.207,100.871c-38.621-24.62-88.49-25.879-102.621-14.548c-23.724,19.025-56.276,23.5-91.586,23.5 s-67.862-4.477-91.586-23.5c-14.131-11.331-64-10.072-102.621,14.548c-3.602,2.296-7.346,7.763-11.127,15.503 c42.865-18.797,73.109-19.822,92.782-19.822c9.931,0,32.356,20.167,40.828,25.379c14.345,8.828,41.379,10.483,71.724,10.483 s57.379-1.655,71.724-10.483c8.471-5.213,30.897-25.379,40.828-25.379c19.673,0,49.918,1.025,92.782,19.822 C457.553,108.633,453.809,103.167,450.207,100.871z"/><path style="fill:#D2FA50;" d="M256,207.448c-17.035,0-30.897-13.863-30.897-30.897s13.863-30.897,30.897-30.897 s30.897,13.863,30.897,30.897S273.035,207.448,256,207.448z M256,154.483c-12.172,0-22.069,9.901-22.069,22.069 c0,12.168,9.897,22.069,22.069,22.069s22.069-9.901,22.069-22.069C278.069,164.384,268.172,154.483,256,154.483z"/><g> <path style="fill:#D7DEED;" d="M203.034,185.379h-8.828c-4.875,0-8.828-3.953-8.828-8.828l0,0c0-4.875,3.953-8.828,8.828-8.828 h8.828c4.875,0,8.828,3.953,8.828,8.828l0,0C211.862,181.427,207.91,185.379,203.034,185.379z"/> <path style="fill:#D7DEED;" d="M317.793,185.379h-8.828c-4.875,0-8.828-3.953-8.828-8.828l0,0c0-4.875,3.953-8.828,8.828-8.828 h8.828c4.875,0,8.828,3.953,8.828,8.828l0,0C326.621,181.427,322.668,185.379,317.793,185.379z"/> <circle style="fill:#D7DEED;" cx="335.448" cy="264.828" r="52.966"/> </g><g> <circle style="fill:#707487;" cx="176.552" cy="264.828" r="44.138"/> <circle style="fill:#707487;" cx="335.448" cy="264.828" r="30.897"/> </g><circle style="fill:#D7DEED;" cx="105.931" cy="176.552" r="52.966"/><circle style="fill:#707487;" cx="105.931" cy="176.552" r="30.897"/><circle style="fill:#82B9FF;" cx="370.759" cy="176.552" r="17.655"/><circle style="fill:#FF6464;" cx="441.379" cy="176.552" r="17.655"/><g> <path style="fill:#5B5D6E;" d="M219.432,254.769c-3.808-16.266-16.556-29.013-32.822-32.822c-0.724,2.414-1.231,4.92-1.231,7.57 c0,14.626,11.857,26.483,26.483,26.483C214.511,256,217.018,255.493,219.432,254.769z"/> <path style="fill:#5B5D6E;" d="M133.672,254.769c2.414,0.724,4.92,1.231,7.57,1.231c14.626,0,26.483-11.857,26.483-26.483 c0-2.649-0.506-5.156-1.231-7.57C150.228,225.756,137.48,238.504,133.672,254.769z"/> <path style="fill:#5B5D6E;" d="M219.432,274.887c-2.414-0.724-4.92-1.231-7.57-1.231c-14.626,0-26.483,11.857-26.483,26.483 c0,2.649,0.506,5.156,1.231,7.57C202.876,303.9,215.624,291.152,219.432,274.887z"/> <path style="fill:#5B5D6E;" d="M141.241,273.655c-2.649,0-5.156,0.506-7.57,1.231c3.808,16.266,16.556,29.013,32.822,32.822 c0.724-2.414,1.231-4.92,1.231-7.57C167.724,285.512,155.868,273.655,141.241,273.655z"/> </g><circle style="fill:#00DCC8;" cx="406.069" cy="211.862" r="17.655"/><circle style="fill:#FFDC50;" cx="406.069" cy="141.241" r="17.655"/><path style="fill:#707487;" d="M388.109,370.759c-28.309-32.9-94.364-43.868-132.109-43.868s-103.8,10.967-132.109,43.868 c-24.396,28.354-53.461,56.172-81.162,61.085c0.473,0.085,0.931,0.205,1.409,0.278c29.426,4.477,61.793-26.858,88.276-53.717 S220.69,342.593,256,342.593s97.103,8.952,123.586,35.811s58.85,58.193,88.276,53.717c0.478-0.073,0.937-0.193,1.409-0.278 C441.57,426.931,412.505,399.113,388.109,370.759z"/></symbol><symbol id="jewels" viewBox="0 0 512 512"><title>jewels</title><g> <polygon style="fill:#00D2FF;" points="368.552,150.069 406.069,44.138 256,44.138 105.931,44.138 143.448,150.069 "/> <polygon style="fill:#00D2FF;" points="256,150.069 512,150.069 256,467.862 "/> </g><g> <polygon style="fill:#18BDF6;" points="256,44.138 256,150.069 0,150.069 105.931,44.138 "/> <polygon style="fill:#18BDF6;" points="256,150.069 0,150.069 256,467.862 "/> <polygon style="fill:#18BDF6;" points="256,44.138 256,150.069 512,150.069 406.069,44.138 "/> </g><polygon style="fill:#00D2FF;" points="256,44.138 143.473,150.069 256,150.069 368.527,150.069 "/><polygon style="fill:#28AFF0;" points="143.448,150.069 256,467.862 368.552,150.069 "/><polygon style="fill:#59E2FF;" points="406.069,44.138 368.552,150.069 512,150.069 "/><polygon style="fill:#28AFF0;" points="105.931,44.138 143.448,150.069 0,150.069 "/><g> <path style="fill:#FFFFFF;" d="M426.244,93.358c-15.236-3.474-27.231-15.468-30.705-30.706c-0.262-1.148-1.781-1.148-2.042,0 c-3.474,15.236-15.468,27.231-30.705,30.706c-1.148,0.262-1.148,1.781,0,2.042c15.236,3.474,27.231,15.467,30.705,30.705 c0.262,1.148,1.781,1.148,2.042,0c3.474-15.238,15.468-27.231,30.705-30.705C427.391,95.139,427.391,93.62,426.244,93.358z"/> <path style="fill:#FFFFFF;" d="M386.731,157.426c-11.789-3.053-21.07-12.335-24.124-24.124c-0.307-1.184-1.839-1.184-2.146,0 c-3.053,11.789-12.335,21.07-24.124,24.124c-1.184,0.307-1.184,1.839,0,2.146c11.789,3.053,21.07,12.334,24.124,24.124 c0.307,1.184,1.839,1.184,2.146,0c3.053-11.789,12.335-21.07,24.124-24.124C387.915,159.265,387.915,157.732,386.731,157.426z"/> </g></symbol><symbol id="lover" viewBox="0 0 512 512"><title>lover</title><path style="fill:#FF6464;" d="M0,173.507C0,95.972,62.854,33.12,140.387,33.12c34.388,0,65.865,12.383,90.262,32.918 c14.664,12.343,36.039,12.343,50.702,0c24.396-20.536,55.873-32.918,90.262-32.918C449.146,33.12,512,95.972,512,173.507v-4.129 c0,136.147-165.574,258.941-230.406,301.804c-15.528,10.265-35.662,10.265-51.189,0C165.574,428.319,0,305.525,0,169.378"/><g> <path style="fill:#D2555A;" d="M0,173.506c0-0.594,0.082-1.167,0.089-1.759C0.077,170.956,0,170.17,0,169.377V173.506z"/> <path style="fill:#D2555A;" d="M114.822,182.728c-0.006,0.639-0.063,1.258-0.063,1.899v-4.457 C114.759,181.026,114.814,181.874,114.822,182.728c0.544-66.886,29.431-123.321,69.206-142.541 c-13.749-4.506-28.381-7.068-43.641-7.068c-76.94,0-139.346,61.913-140.298,138.628c1.909,135.199,165.863,256.821,230.317,299.434 c6.614,4.372,14.069,6.766,21.643,7.414C198.865,418.832,115.96,306.017,114.822,182.728z"/> </g><circle style="fill:#FF8B8B;" cx="449.534" cy="153.942" r="32.044"/><circle style="fill:#FFC1C1;" cx="408.441" cy="92.844" r="20.028"/></symbol><symbol id="races" viewBox="0 0 512 512"><title>races</title><path style="fill:#5B5D6E;" d="M428.914,476.69H83.086c-2.311,0-4.526-0.905-6.182-2.517C27.31,425.587,0,360.647,0,291.31 c0-141.155,114.845-256,256-256s256,114.845,256,256c0,69.336-27.31,134.276-76.905,182.862 C433.44,475.785,431.224,476.69,428.914,476.69z"/><circle style="fill:#7C5E6C;" cx="256" cy="291.31" r="114.759"/><path style="fill:#464655;" d="M428.914,476.69H83.086c-2.311,0-4.526-0.905-6.182-2.517C27.31,425.587,0,360.647,0,291.31 c0-141.155,114.845-256,256-256s256,114.845,256,256c0,69.336-27.31,134.276-76.905,182.862 C433.44,475.785,431.224,476.69,428.914,476.69z M86.724,459.034h338.552c44.568-44.94,69.068-104.362,69.068-167.724 c0-131.423-106.922-238.345-238.345-238.345S17.655,159.887,17.655,291.31C17.655,354.673,42.155,414.094,86.724,459.034z"/><path style="fill:#FF6464;" d="M225.103,331.034c-2.259,0-4.518-0.862-6.241-2.586c-3.448-3.448-3.448-9.035,0-12.483 l132.414-132.414c3.448-3.448,9.035-3.448,12.483,0s3.448,9.035,0,12.483L231.346,328.448 C229.621,330.173,227.362,331.034,225.103,331.034z"/><circle style="fill:#464655;" cx="256" cy="291.31" r="26.483"/><g> <path style="fill:#FFFFFF;" d="M70.621,300.138H44.138c-4.879,0-8.828-3.948-8.828-8.828c0-4.879,3.948-8.828,8.828-8.828h26.483 c4.879,0,8.828,3.948,8.828,8.828C79.448,296.19,75.5,300.138,70.621,300.138z"/> <path style="fill:#FFFFFF;" d="M467.862,300.138h-26.483c-4.879,0-8.828-3.948-8.828-8.828c0-4.879,3.948-8.828,8.828-8.828h26.483 c4.879,0,8.828,3.948,8.828,8.828C476.69,296.19,472.742,300.138,467.862,300.138z"/> <path style="fill:#FFFFFF;" d="M256,114.759c-4.879,0-8.828-3.948-8.828-8.828V79.448c0-4.879,3.948-8.828,8.828-8.828 c4.879,0,8.828,3.948,8.828,8.828v26.483C264.828,110.81,260.879,114.759,256,114.759z"/> <path style="fill:#FFFFFF;" d="M124.914,169.052c-2.259,0-4.518-0.862-6.241-2.586l-18.724-18.724 c-3.448-3.448-3.448-9.035,0-12.483c3.448-3.448,9.035-3.448,12.483,0l18.724,18.724c3.448,3.448,3.448,9.035,0,12.483 C129.431,168.19,127.172,169.052,124.914,169.052z"/> <path style="fill:#FFFFFF;" d="M387.086,169.052c-2.259,0-4.518-0.862-6.241-2.586c-3.448-3.448-3.448-9.035,0-12.483 l18.724-18.724c3.448-3.448,9.035-3.448,12.483,0c3.448,3.448,3.448,9.035,0,12.483l-18.724,18.724 C391.604,168.19,389.345,169.052,387.086,169.052z"/> <path style="fill:#FFFFFF;" d="M60.267,381.216c-3.457,0-6.75-2.051-8.156-5.449c-1.863-4.5,0.276-9.673,4.776-11.534 l24.466-10.138c4.474-1.845,9.673,0.276,11.534,4.776c1.862,4.5-0.276,9.673-4.776,11.534l-24.466,10.138 C62.543,381,61.397,381.216,60.267,381.216z"/> <path style="fill:#FFFFFF;" d="M427.267,229.198c-3.457,0-6.75-2.051-8.156-5.449c-1.863-4.5,0.276-9.673,4.776-11.534 l24.466-10.138c4.483-1.854,9.673,0.267,11.534,4.776c1.863,4.5-0.276,9.673-4.776,11.534l-24.466,10.138 C429.543,228.983,428.396,229.198,427.267,229.198z"/> <path style="fill:#FFFFFF;" d="M185.06,128.871c-3.457,0-6.75-2.051-8.156-5.449l-10.138-24.466 c-1.863-4.5,0.276-9.673,4.776-11.534c4.491-1.854,9.673,0.267,11.534,4.776l10.138,24.466c1.863,4.5-0.276,9.673-4.776,11.534 C187.336,128.655,186.189,128.871,185.06,128.871z"/> <path style="fill:#FFFFFF;" d="M84.733,229.198c-1.129,0-2.276-0.215-3.38-0.672l-24.466-10.138 c-4.5-1.863-6.638-7.034-4.776-11.534c1.863-4.509,7.052-6.63,11.534-4.776l24.466,10.138c4.5,1.863,6.638,7.034,4.776,11.534 C91.482,227.147,88.19,229.198,84.733,229.198z"/> <path style="fill:#FFFFFF;" d="M451.733,381.216c-1.129,0-2.276-0.215-3.38-0.672l-24.466-10.138 c-4.5-1.863-6.638-7.034-4.776-11.534c1.863-4.509,7.052-6.621,11.534-4.776l24.466,10.138c4.5,1.863,6.638,7.034,4.776,11.534 C458.483,379.164,455.19,381.216,451.733,381.216z"/> <path style="fill:#FFFFFF;" d="M326.94,128.871c-1.129,0-2.276-0.215-3.38-0.672c-4.5-1.863-6.638-7.034-4.776-11.534 l10.138-24.466c1.87-4.509,7.06-6.63,11.534-4.776c4.5,1.863,6.638,7.034,4.776,11.534l-10.138,24.466 C333.689,126.819,330.397,128.871,326.94,128.871z"/> </g><g> <path style="fill:#FF6464;" d="M413.87,441.379c-2.103,0-4.207-0.742-5.888-2.25c-3.629-3.25-3.939-8.836-0.69-12.466 c33.363-37.267,51.742-85.336,51.742-135.353c0-111.957-91.078-203.034-203.034-203.034S52.966,179.353,52.966,291.31 c0,50.017,18.379,98.087,51.742,135.353c3.25,3.629,2.94,9.216-0.69,12.466c-3.612,3.25-9.216,2.948-12.466-0.69 C55.285,397.931,35.31,345.681,35.31,291.31c0-121.689,99-220.69,220.69-220.69s220.69,99,220.69,220.69 c0,54.37-19.975,106.621-56.242,147.129C418.707,440.388,416.294,441.379,413.87,441.379z"/> <path style="fill:#FF6464;" d="M317.793,432.552H194.207c-4.875,0-8.828-3.953-8.828-8.828v-35.31c0-4.875,3.953-8.828,8.828-8.828 h123.586c4.875,0,8.828,3.953,8.828,8.828v35.31C326.621,428.599,322.668,432.552,317.793,432.552z"/> </g><g> <path style="fill:#464655;" d="M220.69,423.724L220.69,423.724c-4.875,0-8.828-3.953-8.828-8.828v-17.655 c0-4.875,3.953-8.828,8.828-8.828l0,0c4.875,0,8.828,3.953,8.828,8.828v17.655C229.517,419.772,225.565,423.724,220.69,423.724z"/> <path style="fill:#464655;" d="M256,423.724L256,423.724c-4.875,0-8.828-3.953-8.828-8.828v-17.655 c0-4.875,3.953-8.828,8.828-8.828l0,0c4.875,0,8.828,3.953,8.828,8.828v17.655C264.828,419.772,260.875,423.724,256,423.724z"/> <path style="fill:#464655;" d="M291.31,423.724L291.31,423.724c-4.875,0-8.828-3.953-8.828-8.828v-17.655 c0-4.875,3.953-8.828,8.828-8.828l0,0c4.875,0,8.828,3.953,8.828,8.828v17.655C300.138,419.772,296.185,423.724,291.31,423.724z"/> </g></symbol><symbol id="racing" viewBox="0 0 511.999 511.999"><title>racing</title><g> <rect x="7.037" y="180.967" transform="matrix(-0.6247 -0.7809 0.7809 -0.6247 -90.856 335.9316)" style="fill:#C7CFE2;" width="56.531" height="17.667"/> <path style="fill:#C7CFE2;" d="M206.531,213.423c-5.807-0.736-8.945-7.196-5.933-12.214l6.855-11.425 c4.77-7.95,13.248-13.214,22.52-13.233c0.052,0,0.104,0,0.156,0h43.525c8.342,0,16.196,3.927,21.201,10.601l31.044,41.398 L206.531,213.423z"/> <path style="fill:#C7CFE2;" d="M324.046,170.667c-0.749-0.611-1.577-1.227-2.483-1.839h-39.06l61.773,69.517l35.31-17.655 C379.585,220.689,338.339,182.327,324.046,170.667z"/> </g><path style="fill:#FF6464;" d="M414.896,211.862h-36.119c-5.23,0-10.343,1.548-14.695,4.449l-12.498,8.333 c-1.49,0.993-3.087,1.767-4.728,2.434l-32.807-43.753c-2.093-2.792-0.102-6.774,3.388-6.774h13.542 c-2.669-2.321-5.046-4.345-6.934-5.885c-6.988-5.702-20.23-11.77-50.368-11.77h-43.549c-19.198,0-38.131,4.47-55.301,13.056 l-62.158,31.082H35.31c-14.626,0-26.483,11.857-26.483,26.483v79.448l61.793,17.655h432.551v-26.483 C503.171,251.385,463.649,211.862,414.896,211.862z M206.531,213.423c-5.807-0.736-8.945-7.196-5.933-12.214l6.855-11.425 c4.77-7.95,13.248-13.214,22.52-13.233c0.052,0,0.104,0,0.156,0h43.525c8.342,0,16.196,3.927,21.201,10.601l31.044,41.398 L206.531,213.423z"/><path style="fill:#D2555A;" d="M503.171,335.448H105.931c-4.879,0-8.828-3.948-8.828-8.828s3.948-8.828,8.828-8.828h397.241 c4.879,0,8.828,3.948,8.828,8.828S508.051,335.448,503.171,335.448z"/><circle style="fill:#D7DEED;" cx="414.895" cy="300.137" r="44.138"/><path style="fill:#464655;" d="M414.896,353.103c-29.207,0-52.965-23.758-52.965-52.965c0-29.207,23.758-52.965,52.965-52.965 c29.207,0,52.965,23.758,52.965,52.965C467.861,329.344,444.103,353.103,414.896,353.103z M414.896,264.827 c-19.474,0-35.31,15.837-35.31,35.31s15.837,35.31,35.31,35.31c19.474,0,35.31-15.837,35.31-35.31 C450.206,280.664,434.369,264.827,414.896,264.827z"/><circle style="fill:#B8BFD4;" cx="414.895" cy="300.137" r="17.655"/><g> <path style="fill:#D2555A;" d="M79.457,335.448c-0.707,0-1.431-0.086-2.146-0.267L6.69,317.525 c-4.733-1.181-7.612-5.974-6.422-10.698c1.173-4.741,5.974-7.638,10.698-6.422l70.621,17.655c4.733,1.181,7.612,5.974,6.422,10.698 C87.008,332.776,83.414,335.448,79.457,335.448z"/> <path style="fill:#D2555A;" d="M8.828,255.999l12.484,12.484c3.311,3.311,5.171,7.801,5.171,12.484v36.824l-17.655-8.828 C8.828,308.965,8.828,255.999,8.828,255.999z"/> <path style="fill:#D2555A;" d="M294.335,300.137H141.241c-4.879,0-8.828-3.948-8.828-8.828s3.948-8.828,8.828-8.828h153.094 c7.077,0,13.732-2.759,18.733-7.758l13.379-13.379c3.448-3.448,9.035-3.448,12.483,0s3.448,9.035,0,12.483l-13.379,13.379 C317.214,295.543,306.129,300.137,294.335,300.137z"/> </g><circle style="fill:#D7DEED;" cx="97.102" cy="300.137" r="44.138"/><path style="fill:#464655;" d="M97.103,353.103c-29.207,0-52.965-23.758-52.965-52.965c0-29.207,23.758-52.965,52.965-52.965 s52.965,23.758,52.965,52.965C150.069,329.344,126.31,353.103,97.103,353.103z M97.103,264.827c-19.474,0-35.31,15.837-35.31,35.31 s15.837,35.31,35.31,35.31s35.31-15.837,35.31-35.31C132.414,280.664,116.577,264.827,97.103,264.827z"/><circle style="fill:#B8BFD4;" cx="97.102" cy="300.137" r="17.655"/><path style="fill:#FF8B8B;" d="M15.177,212.497l338.882,33.888c4.73,0.473,9.526-0.266,13.825-2.295 c20.589-9.719,89.972-34.51,134.713,46.234c-4.888-44.13-42.269-78.463-87.701-78.463h-36.121c-5.229,0-10.342,1.548-14.694,4.449 l-12.498,8.333c-1.49,0.993-3.087,1.767-4.728,2.434c0,0-3.193,3.816-20.957,1.472l-70.734-8.964 c-59.114-7.385-134.324-16.552-142.495-16.552H35.31C27.201,203.034,20.034,206.757,15.177,212.497z"/><path style="fill:#FF6464;" d="M44.138,185.379H21.553c-7.599,0-14.346-4.863-16.749-12.072l-2.631-7.893 c-1.069-3.207,1.318-6.518,4.697-6.518h37.268c4.875,0,8.828,3.953,8.828,8.828v8.828C52.965,181.428,49.013,185.379,44.138,185.379 z"/></symbol><symbol id="stamp" viewBox="0 0 373.531 373.531"><title>stamp</title><g> <circle style="fill:#333E48;" cx="255.452" cy="51.072" r="51.072"/> <g> <path style="fill:#3E4A57;" d="M287.181,77.664c9.679,0,17.526,7.848,17.526,17.527c0,9.678-7.848,17.525-17.526,17.525h-63.457 c-9.68,0-17.526-7.848-17.526-17.525c0-9.68,7.847-17.527,17.526-17.527H287.181z"/> </g> <path style="fill:#5C6670;" d="M325.403,119.365c0-13.297-10.878-24.174-24.174-24.174h-91.555 c-13.296,0-24.174,10.877-24.174,24.174v229.992c0,13.295,10.878,24.174,24.174,24.174h91.555 c13.296,0,24.174-10.879,24.174-24.174V119.365z"/> <g> <rect x="207.243" y="285.652" style="fill:#333E48;" width="96.42" height="17.969"/> <rect x="207.243" y="168.225" style="fill:#FFFFFF;" width="96.42" height="117.428"/> <path style="fill:#333E48;" d="M285.185,237.504c0-16.424-29.733-50.861-29.733-50.861s-29.735,34.438-29.735,50.861 c0,16.42,13.313,29.732,29.735,29.732C271.873,267.236,285.185,253.924,285.185,237.504z"/> </g> </g><g> <rect x="105.68" y="265.207" style="fill:#A88D63;" width="54.023" height="64.186"/> <circle style="fill:#A88D63;" cx="132.691" cy="228.287" r="46.853"/> <rect x="48.128" y="329.393" style="fill:#CAA977;" width="169.129" height="29.426"/> <rect x="48.128" y="358.818" style="fill:#333E48;" width="169.129" height="14.713"/> </g></symbol><symbol id="stapler" viewBox="0 0 377.352 377.352"><title>stapler</title><rect y="231.317" style="fill:#A4A9AD;" width="115.71" height="35.296"/><rect y="151.477" style="fill:#B3B8BA;" width="264.015" height="79.841"/><rect x="264.015" y="151.477" style="fill:#C3C6C8;" width="99.623" height="79.841"/><rect x="241.354" y="122.436" style="fill:#A4A9AD;" width="57.275" height="29.041"/><path style="fill:#3E4A57;" d="M330.492,122.436c0-22.276-18.059-40.335-40.335-40.335h-40.333 c-22.276,0-40.335,18.059-40.335,40.335H330.492z"/><polygon style="fill:#A4A9AD;" points="339.569,202.579 333.52,202.579 333.52,184.877 294.132,184.877 294.132,202.579 288.081,202.579 288.081,178.827 339.569,178.827 "/><path style="fill:#3E4A57;" d="M363.638,266.613c7.574,0,13.714,6.14,13.714,13.714h-13.714H261.521v-13.714H363.638z"/><path style="fill:#333E48;" d="M261.521,266.613c7.574,0,13.715,6.14,13.715,13.714h-13.715H0v-13.714H261.521z"/><rect y="280.327" style="fill:#B3B8BA;" width="275.235" height="14.924"/><rect x="275.235" y="280.327" style="fill:#C3C6C8;" width="102.116" height="14.924"/><path style="fill:#333E48;" d="M45.225,190.257H0v76.356h73.963v-47.618C73.963,203.123,61.097,190.257,45.225,190.257z"/><g> <circle style="fill:#C3C6C8;" cx="45.224" cy="218.995" r="10.134"/> <circle style="fill:#3E4A57;" cx="45.225" cy="218.995" r="5.716"/> </g></symbol><symbol id="momentum" viewBox="0 0 384.366 384.366"><title>momentum</title><path style="fill:#3E4A57;" d="M373.185,73.629H110.57c-6.174,0-11.18,5.006-11.18,11.18v214.748c0,6.174,5.006,11.18,11.18,11.18 s11.18-5.006,11.18-11.18V95.988h240.256v203.568c0,6.174,5.006,11.18,11.18,11.18c6.174,0,11.18-5.006,11.18-11.18V84.809 C384.365,78.635,379.359,73.629,373.185,73.629z"/><g> <g> <g> <circle style="fill:#C3C6C8;" cx="94.009" cy="205.342" r="35.333"/> <circle style="fill:#DCDDDE;" cx="81.571" cy="193.146" r="9.956"/> </g> <path style="fill:#333E48;" d="M94.01,171.685c-0.675,0-1.283-0.403-1.545-1.025L57.132,86.925 c-0.36-0.854,0.039-1.837,0.893-2.197c0.856-0.359,1.838,0.039,2.196,0.894l33.789,80.073l33.789-80.073 c0.359-0.854,1.344-1.253,2.196-0.894c0.854,0.36,1.253,1.344,0.894,2.197l-35.334,83.734 C95.293,171.281,94.685,171.685,94.01,171.685z"/> </g> <g> <g> <circle style="fill:#C3C6C8;" cx="164.675" cy="205.342" r="35.333"/> <circle style="fill:#DCDDDE;" cx="152.237" cy="193.146" r="9.956"/> </g> <path style="fill:#333E48;" d="M164.676,171.685c-0.675,0-1.283-0.403-1.545-1.025l-35.333-83.734 c-0.36-0.854,0.039-1.837,0.893-2.197c0.855-0.359,1.838,0.039,2.196,0.894l33.789,80.073l33.789-80.073 c0.359-0.854,1.343-1.253,2.196-0.894c0.854,0.36,1.253,1.344,0.894,2.197l-35.334,83.734 C165.959,171.281,165.351,171.685,164.676,171.685z"/> </g> <g> <g> <circle style="fill:#C3C6C8;" cx="235.341" cy="205.342" r="35.333"/> <circle style="fill:#DCDDDE;" cx="222.903" cy="193.146" r="9.957"/> </g> <path style="fill:#333E48;" d="M235.342,171.685c-0.675,0-1.283-0.403-1.545-1.025l-35.334-83.734 c-0.359-0.854,0.04-1.837,0.893-2.197c0.853-0.359,1.837,0.039,2.196,0.894l33.789,80.073l33.789-80.073 c0.358-0.854,1.344-1.253,2.196-0.894c0.854,0.36,1.253,1.344,0.893,2.197l-35.333,83.734 C236.625,171.281,236.017,171.685,235.342,171.685z"/> </g> <g> <g> <circle style="fill:#C3C6C8;" cx="328.902" cy="198.941" r="35.333"/> <circle style="fill:#DCDDDE;" cx="316.464" cy="186.747" r="9.956"/> </g> <path style="fill:#333E48;" d="M328.902,165.285c-0.518,0-1.018-0.241-1.339-0.668l-58.229-77.336 c-0.557-0.74-0.409-1.791,0.331-2.349c0.739-0.557,1.791-0.409,2.349,0.331l55.859,74.188l11.813-73.445 c0.147-0.914,0.997-1.534,1.922-1.391c0.914,0.147,1.536,1.008,1.39,1.923l-12.439,77.335c-0.107,0.664-0.6,1.2-1.252,1.361 C329.172,165.268,329.037,165.285,328.902,165.285z"/> </g> </g><path style="fill:#5C6670;" d="M373.185,288.377h-88.212V84.809c0-6.174-5.005-11.18-11.179-11.18H11.18 C5.006,73.629,0,78.635,0,84.809v214.748c0,6.174,5.006,11.18,11.18,11.18h99.391c6.174,0,11.18-5.006,11.18-11.18 c0-6.174-5.006-11.18-11.18-11.18H22.359V95.988h240.256v203.568c0,6.174,5.006,11.18,11.18,11.18h99.391 c6.174,0,11.18-5.006,11.18-11.18C384.365,293.383,379.359,288.377,373.185,288.377z"/></symbol><symbol id="clock" viewBox="0 0 390.737 390.737"><title>clock</title><g> <path style="fill:#333E48;" d="M176.769,372.137C79.142,372.137,0,292.995,0,195.368S79.142,18.6,176.769,18.6h37.199 c97.627,0,176.769,79.142,176.769,176.769s-79.142,176.769-176.769,176.769h-37.199V372.137z"/> </g><circle style="fill:#3E4A57;" cx="176.769" cy="195.368" r="176.769"/><circle style="fill:#FFFFFF;" cx="176.769" cy="195.368" r="129.873"/><g> <circle style="fill:#A4A9AD;" cx="65.035" cy="195.368" r="10"/> <circle style="fill:#A4A9AD;" cx="176.769" cy="83.635" r="9.999"/> <circle style="fill:#A4A9AD;" cx="288.502" cy="195.368" r="9.999"/> <circle style="fill:#A4A9AD;" cx="176.769" cy="307.102" r="9.999"/> </g><path style="fill:#FF8189;" d="M112.785,263.511c-1.064,0-2.129-0.406-2.941-1.218c-1.624-1.624-1.624-4.258,0-5.882l63.983-63.983 c1.625-1.625,4.258-1.625,5.883,0c1.624,1.623,1.624,4.258,0,5.881l-63.983,63.984 C114.914,263.104,113.851,263.511,112.785,263.511z"/><path style="fill:#333E48;" d="M188.324,195.368c0,6.382-5.174,11.556-11.556,11.556s-11.556-5.174-11.556-11.556v-87.669 c0-6.382,5.174-11.556,11.556-11.556s11.556,5.174,11.556,11.556V195.368z"/><path style="fill:#333E48;" d="M176.769,206.924c-6.382,0-11.556-5.173-11.556-11.556s5.174-11.556,11.556-11.556h59.939 c6.382,0,11.556,5.173,11.556,11.556s-5.174,11.556-11.556,11.556H176.769z"/></symbol><symbol id="dossier" viewBox="0 0 387.8 387.8"><title>dossier</title><path style="fill:#DFCAA3;" d="M49.702,80.903V28.141C49.702,12.663,62.366,0,77.843,0h232.113 c15.478,0,28.141,12.663,28.141,28.141v52.762H49.702z"/><g> <rect x="68.95" y="36.835" style="fill:#FFFFFF;" width="249.898" height="265.931"/> <rect x="88.868" y="63.436" style="fill:#A4A9AD;" width="192.62" height="7.763"/> </g><rect x="49.702" y="80.903" style="fill:#CAA977;" width="288.395" height="306.897"/><rect x="193.899" y="80.903" style="fill:#BFA070;" width="144.197" height="306.897"/><path style="fill:#DFCAA3;" d="M173.585,170.382c0-2.41,1.953-4.363,4.362-4.363c2.41,0,4.363,1.953,4.363,4.363v121.583 c0,2.409-1.953,4.362-4.363,4.362c-2.409,0-4.362-1.953-4.362-4.362V170.382z"/><g> <circle style="fill:#FF8189;" cx="193.899" cy="168.79" r="21.903"/> <circle style="fill:#F6C65B;" cx="193.899" cy="168.79" r="12.677"/> <circle style="fill:#4C5B6B;" cx="193.899" cy="168.79" r="7.623"/> </g><path style="fill:#DFCAA3;" d="M49.702,387.8c0-15.478,12.663-28.141,28.141-28.141h232.113c15.478,0,28.141,12.664,28.141,28.141 H49.702z"/></symbol><symbol id="flip-chart" viewBox="0 0 393.289 393.289"><title>flip-chart</title><g> <rect x="106.458" y="15.945" style="fill:#A88D63;" width="191.128" height="198.991"/> <rect x="95.704" y="15.945" style="fill:#CAA977;" width="191.126" height="198.991"/> <rect x="114.767" y="15.945" style="fill:#FFFFFF;" width="153" height="179.724"/> <g> <path style="fill:#5C6670;" d="M289.854,0c4.402,0,7.972,3.568,7.972,7.972c0,4.405-3.569,7.974-7.972,7.974H92.682 c-4.403,0-7.974-3.568-7.974-7.974c0-4.403,3.57-7.972,7.974-7.972H289.854z"/> <path style="fill:#3E4A57;" d="M300.608,0c4.402,0,7.973,3.568,7.973,7.972c0,4.405-3.57,7.974-7.973,7.974H286.83 c-4.403,0-7.972-3.568-7.972-7.974c0-4.403,3.568-7.972,7.972-7.972H300.608z"/> </g> <g> <path style="fill:#5C6670;" d="M289.854,214.936c4.402,0,7.972,3.57,7.972,7.974c0,4.402-3.569,7.973-7.972,7.973H92.682 c-4.403,0-7.974-3.57-7.974-7.973s3.57-7.974,7.974-7.974H289.854z"/> <path style="fill:#3E4A57;" d="M300.608,214.936c4.402,0,7.973,3.57,7.973,7.974c0,4.402-3.57,7.973-7.973,7.973H286.83 c-4.403,0-7.972-3.57-7.972-7.973s3.568-7.974,7.972-7.974H300.608z"/> </g> </g><rect x="130.772" y="46.113" style="fill:#A4A9AD;" width="121.797" height="9.535"/><rect x="130.772" y="67.892" style="fill:#A4A9AD;" width="87.113" height="9.535"/><rect x="130.772" y="89.672" style="fill:#A4A9AD;" width="121.797" height="9.533"/><rect x="130.772" y="111.45" style="fill:#A4A9AD;" width="87.113" height="9.533"/><rect x="130.772" y="133.229" style="fill:#A4A9AD;" width="121.797" height="9.535"/><rect x="130.772" y="155.007" style="fill:#A4A9AD;" width="87.113" height="9.536"/><g> <path style="fill:#5C6670;" d="M211.214,393.289c-3.673,0-7.204-2.035-8.944-5.548l-17.635-35.611 c-2.444-4.936-0.425-10.917,4.511-13.359c4.932-2.448,10.916-0.427,13.361,4.509l17.635,35.611 c2.444,4.936,0.425,10.917-4.509,13.361C214.209,392.957,212.699,393.289,211.214,393.289z"/> <path style="fill:#3E4A57;" d="M254.884,374.904l-51.193-32.578V230.883h-20.242v111.443l-51.193,32.578 c-4.646,2.957-6.016,9.12-3.059,13.765c1.901,2.987,5.126,4.62,8.421,4.62c1.832,0,3.685-0.505,5.344-1.561l50.607-32.205 l50.608,32.205c1.658,1.056,3.512,1.561,5.344,1.561c3.294,0,6.521-1.633,8.421-4.62 C260.899,384.024,259.53,377.861,254.884,374.904z"/> </g></symbol><symbol id="lamp" viewBox="0 0 296.201 296.201"><title>lamp</title><path style="fill:#333E48;" d="M67.638,61.574c-1.381,0-2.5-1.119-2.5-2.5V43.431c0-1.381,1.119-2.5,2.5-2.5h44.089 c1.381,0,2.5,1.119,2.5,2.5s-1.119,2.5-2.5,2.5H70.138v13.142C70.138,60.455,69.019,61.574,67.638,61.574z"/><path style="fill:#3E4A57;" d="M267.201,55.931H118.1c-6.903,0-12.5-5.598-12.5-12.5c0-6.904,5.597-12.5,12.5-12.5h149.102 c6.903,0,12.5,5.596,12.5,12.5C279.701,50.333,274.104,55.931,267.201,55.931z"/><path style="fill:#3E4A57;" d="M191.21,262.076c-1.03,0-2.077-0.129-3.121-0.397c-6.686-1.719-10.713-8.533-8.994-15.219 l76-206.143c1.72-6.686,8.534-10.713,15.219-8.994c6.686,1.719,10.713,8.533,8.994,15.219l-76,206.143 C201.857,258.326,196.778,262.076,191.21,262.076z"/><g> <path style="fill:#DFCAA3;" d="M93.591,133.729c0-14.338-11.62-25.956-25.955-25.956c-14.333,0-25.952,11.62-25.952,25.956 c0,14.333,11.618,25.952,25.953,25.952C81.971,159.682,93.591,148.061,93.591,133.729z"/> <rect x="44.665" y="53.455" style="fill:#77B8E8;" width="45.944" height="31.783"/> <path style="fill:#009BDE;" d="M135.275,136.983c0.001-37.355-30.282-67.637-67.638-67.638C30.283,69.346,0,99.63,0,136.983 H135.275z"/> </g><g> <circle style="fill:#5C6670;" cx="267.201" cy="43.431" r="29"/> <circle style="fill:#333E48;" cx="267.201" cy="43.431" r="18.229"/> </g><path style="fill:#009BDE;" d="M268.07,281.77c0-20.912-16.951-37.863-37.862-37.863h-76.015 c-20.911,0-37.862,16.951-37.862,37.863H268.07z"/></symbol><symbol id="coffee-machine" viewBox="0 0 369.167 369.167"><title>coffee-machine</title><path style="fill:#333E48;" d="M349.871,29.895h-81.879c-10.611,0-19.295,8.683-19.295,19.297v230.265H69.443 c-7.074,0-12.863,5.788-12.863,12.863v34.088c0,7.076,5.789,12.864,12.863,12.864h286.861c7.074,0,12.863-5.788,12.863-12.864 V49.191C369.168,38.577,360.484,29.895,349.871,29.895z"/><rect x="153.523" y="29.895" style="fill:#333E48;" width="120.369" height="80.616"/><path style="fill:#3E4A57;" d="M304.539,29.895H222.66c-10.611,0-19.295,8.683-19.295,19.297v230.265H24.111 c-7.074,0-12.863,5.788-12.863,12.863v34.088c0,7.076,5.789,12.864,12.863,12.864h286.861c7.074,0,12.863-5.788,12.863-12.864 V49.191C323.836,38.577,315.152,29.895,304.539,29.895z"/><path style="fill:#3E4A57;" d="M38.918,133.527c1.635,9.999,11.26,18.18,21.393,18.18h90.881c10.131,0,19.758-8.181,21.391-18.18 l13.959-85.453c1.633-9.999-5.318-18.18-15.451-18.18H40.41c-10.133,0-17.084,8.181-15.451,18.18L38.918,133.527z"/><g> <path style="fill:#77B8E8;" d="M168.023,196.947c-1.197-6.974-7.965-12.679-15.039-12.679H58.537 c-7.074,0-13.842,5.705-15.041,12.679l-11.984,69.83c-1.197,6.973,3.613,12.679,10.688,12.679h127.119 c7.074,0,11.885-5.706,10.688-12.679L168.023,196.947z"/> <path style="fill:#A88D63;" d="M180.006,266.777l-6.182-36.025H37.695l-6.184,36.025c-1.197,6.973,3.613,12.679,10.688,12.679 h127.119C176.393,279.456,181.203,273.75,180.006,266.777z"/> <path style="fill:#333E48;" d="M50.748,161.141v3.844h-9.742C18.395,164.984,0,183.378,0,205.989v15.113 c0,5.33,4.318,9.649,9.649,9.649c5.328,0,9.648-4.319,9.648-9.649v-15.113c0-11.97,9.738-21.709,21.709-21.709h34.555 c0.082,0,0.16-0.01,0.242-0.012h84.965V161.14L50.748,161.141L50.748,161.141z"/> </g><circle style="fill:#D16A70;" cx="269.305" cy="302.505" r="15.438"/><g> <path style="fill:#A4A9AD;" d="M284.742,184.269c0,8.525-6.912,15.438-15.439,15.438c-8.525,0-15.436-6.912-15.436-15.438V85.64 c0-8.525,6.91-15.438,15.436-15.438c8.527,0,15.439,6.912,15.439,15.438V184.269z"/> <g> <rect x="271.629" y="178.146" style="fill:#333E48;" width="13.113" height="3.395"/> <rect x="263.6" y="165.32" style="fill:#333E48;" width="21.143" height="3.395"/> <rect x="271.629" y="152.495" style="fill:#333E48;" width="13.113" height="3.395"/> <rect x="263.6" y="139.67" style="fill:#333E48;" width="21.143" height="3.395"/> <rect x="271.629" y="126.845" style="fill:#333E48;" width="13.113" height="3.395"/> <rect x="263.6" y="114.019" style="fill:#333E48;" width="21.143" height="3.395"/> <rect x="271.629" y="101.194" style="fill:#333E48;" width="13.113" height="3.395"/> <rect x="263.6" y="88.368" style="fill:#333E48;" width="21.143" height="3.395"/> </g> </g></symbol><symbol id="folder" viewBox="0 0 367.6 367.6"><title>folder</title><path style="fill:#FFA400;" d="M347.928,72.904h-164.61l-1.476-9.574c-1.647-10.693-11.849-19.442-22.669-19.442h-79.18 c-10.82,0-21.022,8.749-22.668,19.442l-1.476,9.574h-5.611c-10.819,0-19.672,8.853-19.672,19.672V304.04 c0,10.82,8.853,19.672,19.672,19.672h297.689c10.819,0,19.673-8.852,19.673-19.672V92.577 C367.602,81.757,358.747,72.904,347.928,72.904z"/><rect x="48.797" y="94.106" style="fill:#FFFFFF;" width="295.084" height="200.013"/><path style="fill:#F6C65B;" d="M337.281,135.114c-1.718-10.683-11.976-19.423-22.795-19.423H16.796 c-10.82,0-18.268,8.74-16.55,19.423L27.444,304.29c1.718,10.683,11.976,19.423,22.795,19.423h297.689 c10.819,0,18.267-8.74,16.55-19.423L337.281,135.114z"/></symbol><symbol id="ruler" viewBox="0 0 355.483 355.483"><title>ruler</title><rect x="-33.792" y="135.084" transform="matrix(-0.7071 -0.7071 0.7071 -0.7071 172.9173 417.4058)" style="fill:#77B8E8;" width="413.396" height="75.612"/><rect x="317.033" y="286.098" transform="matrix(0.7071 0.7071 -0.7071 0.7071 323.899 -134.1542)" style="fill:#009BDE;" width="13.709" height="75.611"/><g> <rect x="48.391" y="9.587" transform="matrix(-0.7071 -0.7071 0.7071 -0.7071 70.6175 91.2254)" style="fill:#333E48;" width="11.622" height="42.801"/> <rect x="74.208" y="32.999" transform="matrix(-0.7071 -0.7071 0.7071 -0.7071 102.2277 139.5659)" style="fill:#333E48;" width="11.622" height="31.225"/> <rect x="91.827" y="53.021" transform="matrix(-0.7071 -0.7071 0.7071 -0.7071 114.0551 196.0863)" style="fill:#333E48;" width="11.622" height="42.801"/> <rect x="117.638" y="76.433" transform="matrix(-0.7071 -0.7071 0.7071 -0.7071 145.6527 244.4219)" style="fill:#333E48;" width="11.62" height="31.225"/> <rect x="135.266" y="96.455" transform="matrix(-0.7071 -0.7071 0.7071 -0.7071 157.4975 300.9501)" style="fill:#333E48;" width="11.623" height="42.802"/> <rect x="161.079" y="119.868" transform="matrix(-0.7071 -0.7071 0.7071 -0.7071 189.0988 349.287)" style="fill:#333E48;" width="11.62" height="31.225"/> <rect x="178.706" y="139.889" transform="matrix(-0.7071 -0.7071 0.7071 -0.7071 200.9397 405.8112)" style="fill:#333E48;" width="11.62" height="42.802"/> <rect x="204.508" y="163.303" transform="matrix(-0.7071 -0.7071 0.7071 -0.7071 232.5231 454.1451)" style="fill:#333E48;" width="11.62" height="31.225"/> <rect x="222.131" y="183.325" transform="matrix(-0.7071 -0.7071 0.7071 -0.7071 244.3575 510.6671)" style="fill:#333E48;" width="11.62" height="42.802"/> <rect x="247.925" y="206.739" transform="matrix(-0.7071 -0.7071 0.7071 -0.7071 275.9254 558.9948)" style="fill:#333E48;" width="11.618" height="31.226"/> <rect x="265.56" y="226.76" transform="matrix(-0.707 -0.7072 0.7072 -0.707 287.7294 615.5261)" style="fill:#333E48;" width="11.62" height="42.801"/> <rect x="308.977" y="270.195" transform="matrix(-0.7071 -0.7071 0.7071 -0.7071 331.1868 720.3718)" style="fill:#333E48;" width="11.62" height="42.801"/> <rect x="291.364" y="250.172" transform="matrix(-0.7072 -0.707 0.707 -0.7072 319.4261 663.8541)" style="fill:#333E48;" width="11.62" height="31.227"/> </g></symbol></svg>